<mxfile host="app.diagrams.net" agent="Mozilla/5.0 (Windows NT 10.0; Win64; x64; rv:132.0) Gecko/20100101 Firefox/132.0" version="24.8.6" pages="2">
  <diagram name="Pagina-1" id="XRNuTaB9I9MSfYOUS6OP">
    <mxGraphModel dx="1827" dy="1629" grid="1" gridSize="10" guides="1" tooltips="1" connect="1" arrows="1" fold="1" page="1" pageScale="1" pageWidth="827" pageHeight="1169" math="0" shadow="0">
      <root>
        <mxCell id="0" />
        <mxCell id="1" parent="0" />
        <mxCell id="pUwQ2fJmEz475Cd50NN1-1" value="Schip" style="whiteSpace=wrap;html=1;align=center;" parent="1" vertex="1">
          <mxGeometry x="364" y="50" width="100" height="40" as="geometry" />
        </mxCell>
        <mxCell id="pUwQ2fJmEz475Cd50NN1-2" value="Naam" style="ellipse;whiteSpace=wrap;html=1;align=center;" parent="1" vertex="1">
          <mxGeometry x="220" y="-100" width="100" height="40" as="geometry" />
        </mxCell>
        <mxCell id="pUwQ2fJmEz475Cd50NN1-3" value="Passagiers" style="ellipse;whiteSpace=wrap;html=1;align=center;" parent="1" vertex="1">
          <mxGeometry x="430" y="-60" width="100" height="40" as="geometry" />
        </mxCell>
        <mxCell id="pUwQ2fJmEz475Cd50NN1-5" value="Cruise" style="whiteSpace=wrap;html=1;align=center;" parent="1" vertex="1">
          <mxGeometry x="364" y="370" width="100" height="40" as="geometry" />
        </mxCell>
        <mxCell id="pUwQ2fJmEz475Cd50NN1-6" value="maakt" style="shape=rhombus;perimeter=rhombusPerimeter;whiteSpace=wrap;html=1;align=center;" parent="1" vertex="1">
          <mxGeometry x="354" y="190" width="120" height="60" as="geometry" />
        </mxCell>
        <mxCell id="pUwQ2fJmEz475Cd50NN1-7" value="" style="endArrow=none;html=1;rounded=0;" parent="1" source="pUwQ2fJmEz475Cd50NN1-6" target="pUwQ2fJmEz475Cd50NN1-1" edge="1">
          <mxGeometry relative="1" as="geometry">
            <mxPoint x="360" y="210" as="sourcePoint" />
            <mxPoint x="520" y="210" as="targetPoint" />
          </mxGeometry>
        </mxCell>
        <mxCell id="pUwQ2fJmEz475Cd50NN1-18" value="(0, N)" style="edgeLabel;html=1;align=center;verticalAlign=middle;resizable=0;points=[];" parent="pUwQ2fJmEz475Cd50NN1-7" vertex="1" connectable="0">
          <mxGeometry x="0.5378" relative="1" as="geometry">
            <mxPoint as="offset" />
          </mxGeometry>
        </mxCell>
        <mxCell id="pUwQ2fJmEz475Cd50NN1-8" value="" style="endArrow=none;html=1;rounded=0;" parent="1" edge="1">
          <mxGeometry relative="1" as="geometry">
            <mxPoint x="414" y="250" as="sourcePoint" />
            <mxPoint x="414" y="370" as="targetPoint" />
          </mxGeometry>
        </mxCell>
        <mxCell id="pUwQ2fJmEz475Cd50NN1-19" value="(1, M)" style="edgeLabel;html=1;align=center;verticalAlign=middle;resizable=0;points=[];" parent="pUwQ2fJmEz475Cd50NN1-8" vertex="1" connectable="0">
          <mxGeometry x="0.47" relative="1" as="geometry">
            <mxPoint as="offset" />
          </mxGeometry>
        </mxCell>
        <mxCell id="pUwQ2fJmEz475Cd50NN1-14" value="Grootte" style="ellipse;whiteSpace=wrap;html=1;align=center;" parent="1" vertex="1">
          <mxGeometry x="570" y="10" width="80" height="40" as="geometry" />
        </mxCell>
        <mxCell id="pUwQ2fJmEz475Cd50NN1-22" value="Haven" style="whiteSpace=wrap;html=1;align=center;" parent="1" vertex="1">
          <mxGeometry x="660" y="50" width="100" height="40" as="geometry" />
        </mxCell>
        <mxCell id="pUwQ2fJmEz475Cd50NN1-23" value="Diepgang" style="ellipse;whiteSpace=wrap;html=1;align=center;" parent="1" vertex="1">
          <mxGeometry x="460" width="100" height="40" as="geometry" />
        </mxCell>
        <mxCell id="pUwQ2fJmEz475Cd50NN1-24" value="Diepgang" style="ellipse;whiteSpace=wrap;html=1;align=center;" parent="1" vertex="1">
          <mxGeometry x="780" y="40" width="100" height="40" as="geometry" />
        </mxCell>
        <mxCell id="pUwQ2fJmEz475Cd50NN1-26" value="meert aan" style="shape=rhombus;perimeter=rhombusPerimeter;whiteSpace=wrap;html=1;align=center;" parent="1" vertex="1">
          <mxGeometry x="650" y="180" width="120" height="60" as="geometry" />
        </mxCell>
        <mxCell id="pUwQ2fJmEz475Cd50NN1-27" value="" style="endArrow=none;html=1;rounded=0;" parent="1" source="pUwQ2fJmEz475Cd50NN1-5" target="pUwQ2fJmEz475Cd50NN1-26" edge="1">
          <mxGeometry relative="1" as="geometry">
            <mxPoint x="360" y="210" as="sourcePoint" />
            <mxPoint x="520" y="210" as="targetPoint" />
          </mxGeometry>
        </mxCell>
        <mxCell id="pUwQ2fJmEz475Cd50NN1-29" value="(1, N)" style="edgeLabel;html=1;align=center;verticalAlign=middle;resizable=0;points=[];" parent="pUwQ2fJmEz475Cd50NN1-27" vertex="1" connectable="0">
          <mxGeometry x="-0.576" y="1" relative="1" as="geometry">
            <mxPoint as="offset" />
          </mxGeometry>
        </mxCell>
        <mxCell id="pUwQ2fJmEz475Cd50NN1-28" value="" style="endArrow=none;html=1;rounded=0;" parent="1" source="pUwQ2fJmEz475Cd50NN1-22" target="pUwQ2fJmEz475Cd50NN1-26" edge="1">
          <mxGeometry relative="1" as="geometry">
            <mxPoint x="360" y="210" as="sourcePoint" />
            <mxPoint x="520" y="210" as="targetPoint" />
          </mxGeometry>
        </mxCell>
        <mxCell id="pUwQ2fJmEz475Cd50NN1-30" value="(0, M)" style="edgeLabel;html=1;align=center;verticalAlign=middle;resizable=0;points=[];" parent="pUwQ2fJmEz475Cd50NN1-28" vertex="1" connectable="0">
          <mxGeometry x="-0.52" y="-1" relative="1" as="geometry">
            <mxPoint as="offset" />
          </mxGeometry>
        </mxCell>
        <mxCell id="pUwQ2fJmEz475Cd50NN1-31" value="Passagier" style="whiteSpace=wrap;html=1;align=center;" parent="1" vertex="1">
          <mxGeometry x="30" y="50" width="100" height="40" as="geometry" />
        </mxCell>
        <mxCell id="pUwQ2fJmEz475Cd50NN1-32" value="zit op" style="shape=rhombus;perimeter=rhombusPerimeter;whiteSpace=wrap;html=1;align=center;" parent="1" vertex="1">
          <mxGeometry x="180" y="40" width="120" height="60" as="geometry" />
        </mxCell>
        <mxCell id="pUwQ2fJmEz475Cd50NN1-33" value="" style="endArrow=none;html=1;rounded=0;" parent="1" source="pUwQ2fJmEz475Cd50NN1-32" target="pUwQ2fJmEz475Cd50NN1-1" edge="1">
          <mxGeometry relative="1" as="geometry">
            <mxPoint x="360" y="210" as="sourcePoint" />
            <mxPoint x="520" y="210" as="targetPoint" />
          </mxGeometry>
        </mxCell>
        <mxCell id="pUwQ2fJmEz475Cd50NN1-40" value="(0, N)" style="edgeLabel;html=1;align=center;verticalAlign=middle;resizable=0;points=[];" parent="pUwQ2fJmEz475Cd50NN1-33" vertex="1" connectable="0">
          <mxGeometry x="0.2769" y="1" relative="1" as="geometry">
            <mxPoint as="offset" />
          </mxGeometry>
        </mxCell>
        <mxCell id="pUwQ2fJmEz475Cd50NN1-35" value="Naam" style="ellipse;whiteSpace=wrap;html=1;align=center;" parent="1" vertex="1">
          <mxGeometry x="70" y="-70" width="100" height="40" as="geometry" />
        </mxCell>
        <mxCell id="pUwQ2fJmEz475Cd50NN1-36" value="boekt met" style="shape=rhombus;perimeter=rhombusPerimeter;whiteSpace=wrap;html=1;align=center;" parent="1" vertex="1">
          <mxGeometry x="30" y="200" width="86" height="40" as="geometry" />
        </mxCell>
        <mxCell id="qJNfwfcQ3lbtcBfEXmdF-6" value="extra prijs" style="ellipse;whiteSpace=wrap;html=1;" parent="1" vertex="1">
          <mxGeometry x="455" y="435.87" width="90" height="40" as="geometry" />
        </mxCell>
        <mxCell id="qJNfwfcQ3lbtcBfEXmdF-8" value="" style="ellipse;whiteSpace=wrap;html=1;align=center;aspect=fixed;fillColor=none;strokeColor=none;resizable=0;perimeter=centerPerimeter;rotatable=0;allowArrows=0;points=[];outlineConnect=1;" parent="1" vertex="1">
          <mxGeometry x="344" y="170" width="10" height="10" as="geometry" />
        </mxCell>
        <mxCell id="qJNfwfcQ3lbtcBfEXmdF-9" value="Hoofdboeker" style="whiteSpace=wrap;html=1;align=center;" parent="1" vertex="1">
          <mxGeometry x="-130" y="200" width="100" height="40" as="geometry" />
        </mxCell>
        <mxCell id="qJNfwfcQ3lbtcBfEXmdF-10" value="Gast" style="whiteSpace=wrap;html=1;align=center;" parent="1" vertex="1">
          <mxGeometry x="170" y="200" width="100" height="40" as="geometry" />
        </mxCell>
        <mxCell id="qJNfwfcQ3lbtcBfEXmdF-12" value="D" style="ellipse;whiteSpace=wrap;html=1;aspect=fixed;" parent="1" vertex="1">
          <mxGeometry x="60" y="140" width="40" height="40" as="geometry" />
        </mxCell>
        <mxCell id="qJNfwfcQ3lbtcBfEXmdF-14" value="" style="endArrow=none;html=1;rounded=0;" parent="1" source="qJNfwfcQ3lbtcBfEXmdF-9" target="qJNfwfcQ3lbtcBfEXmdF-12" edge="1">
          <mxGeometry width="50" height="50" relative="1" as="geometry">
            <mxPoint x="373.7" y="240" as="sourcePoint" />
            <mxPoint x="470.00367782946677" y="189.31880795150437" as="targetPoint" />
          </mxGeometry>
        </mxCell>
        <mxCell id="qJNfwfcQ3lbtcBfEXmdF-15" value="" style="endArrow=none;html=1;rounded=0;" parent="1" source="qJNfwfcQ3lbtcBfEXmdF-10" target="qJNfwfcQ3lbtcBfEXmdF-12" edge="1">
          <mxGeometry width="50" height="50" relative="1" as="geometry">
            <mxPoint x="350" y="260" as="sourcePoint" />
            <mxPoint x="400" y="210" as="targetPoint" />
          </mxGeometry>
        </mxCell>
        <mxCell id="qJNfwfcQ3lbtcBfEXmdF-18" value="" style="ellipse;whiteSpace=wrap;html=1;align=center;aspect=fixed;fillColor=none;strokeColor=none;resizable=0;perimeter=centerPerimeter;rotatable=0;allowArrows=0;points=[];outlineConnect=1;" parent="1" vertex="1">
          <mxGeometry x="360" y="230" width="10" height="10" as="geometry" />
        </mxCell>
        <mxCell id="qJNfwfcQ3lbtcBfEXmdF-20" value="" style="ellipse;whiteSpace=wrap;html=1;align=center;aspect=fixed;fillColor=none;strokeColor=none;resizable=0;perimeter=centerPerimeter;rotatable=0;allowArrows=0;points=[];outlineConnect=1;" parent="1" vertex="1">
          <mxGeometry x="360" y="230" width="10" height="10" as="geometry" />
        </mxCell>
        <mxCell id="qJNfwfcQ3lbtcBfEXmdF-21" value="" style="endArrow=none;html=1;rounded=0;" parent="1" source="pUwQ2fJmEz475Cd50NN1-36" target="qJNfwfcQ3lbtcBfEXmdF-9" edge="1">
          <mxGeometry width="50" height="50" relative="1" as="geometry">
            <mxPoint x="491.0591397849462" y="265.3763440860214" as="sourcePoint" />
            <mxPoint x="551" y="256.99300699300693" as="targetPoint" />
          </mxGeometry>
        </mxCell>
        <mxCell id="qJNfwfcQ3lbtcBfEXmdF-24" value="(0,N)" style="edgeLabel;html=1;align=center;verticalAlign=middle;resizable=0;points=[];" parent="qJNfwfcQ3lbtcBfEXmdF-21" vertex="1" connectable="0">
          <mxGeometry x="0.3615" y="-2" relative="1" as="geometry">
            <mxPoint x="-9" y="-2" as="offset" />
          </mxGeometry>
        </mxCell>
        <mxCell id="qJNfwfcQ3lbtcBfEXmdF-22" value="" style="endArrow=none;html=1;rounded=0;" parent="1" source="qJNfwfcQ3lbtcBfEXmdF-10" target="pUwQ2fJmEz475Cd50NN1-36" edge="1">
          <mxGeometry width="50" height="50" relative="1" as="geometry">
            <mxPoint x="350" y="260" as="sourcePoint" />
            <mxPoint x="400" y="210" as="targetPoint" />
          </mxGeometry>
        </mxCell>
        <mxCell id="qJNfwfcQ3lbtcBfEXmdF-23" value="(1,1)" style="edgeLabel;html=1;align=center;verticalAlign=middle;resizable=0;points=[];" parent="qJNfwfcQ3lbtcBfEXmdF-22" vertex="1" connectable="0">
          <mxGeometry x="-0.4524" y="2" relative="1" as="geometry">
            <mxPoint y="2" as="offset" />
          </mxGeometry>
        </mxCell>
        <mxCell id="qJNfwfcQ3lbtcBfEXmdF-25" value="" style="endArrow=none;html=1;rounded=0;" parent="1" source="pUwQ2fJmEz475Cd50NN1-32" target="pUwQ2fJmEz475Cd50NN1-31" edge="1">
          <mxGeometry width="50" height="50" relative="1" as="geometry">
            <mxPoint x="220" y="40" as="sourcePoint" />
            <mxPoint x="170" y="40" as="targetPoint" />
          </mxGeometry>
        </mxCell>
        <mxCell id="qJNfwfcQ3lbtcBfEXmdF-74" value="(1, 1)" style="edgeLabel;html=1;align=center;verticalAlign=middle;resizable=0;points=[];" parent="qJNfwfcQ3lbtcBfEXmdF-25" vertex="1" connectable="0">
          <mxGeometry x="0.3035" y="1" relative="1" as="geometry">
            <mxPoint as="offset" />
          </mxGeometry>
        </mxCell>
        <mxCell id="qJNfwfcQ3lbtcBfEXmdF-28" value="Bezienswaardigheid" style="ellipse;shape=doubleEllipse;whiteSpace=wrap;html=1;" parent="1" vertex="1">
          <mxGeometry x="670" y="-10" width="130" height="40" as="geometry" />
        </mxCell>
        <mxCell id="qJNfwfcQ3lbtcBfEXmdF-43" value="" style="ellipse;whiteSpace=wrap;html=1;align=center;aspect=fixed;fillColor=none;strokeColor=none;resizable=0;perimeter=centerPerimeter;rotatable=0;allowArrows=0;points=[];outlineConnect=1;" parent="1" vertex="1">
          <mxGeometry x="400" y="710" width="10" height="10" as="geometry" />
        </mxCell>
        <mxCell id="qJNfwfcQ3lbtcBfEXmdF-50" value="" style="endArrow=none;html=1;rounded=0;" parent="1" source="qJNfwfcQ3lbtcBfEXmdF-78" target="qJNfwfcQ3lbtcBfEXmdF-77" edge="1">
          <mxGeometry width="50" height="50" relative="1" as="geometry">
            <mxPoint x="147.29999999999973" y="392.36" as="sourcePoint" />
            <mxPoint x="81.27140183233178" y="339.9957009161657" as="targetPoint" />
          </mxGeometry>
        </mxCell>
        <mxCell id="qJNfwfcQ3lbtcBfEXmdF-53" value="(0,M)" style="edgeLabel;html=1;align=center;verticalAlign=middle;resizable=0;points=[];" parent="qJNfwfcQ3lbtcBfEXmdF-50" vertex="1" connectable="0">
          <mxGeometry x="-0.3429" y="1" relative="1" as="geometry">
            <mxPoint as="offset" />
          </mxGeometry>
        </mxCell>
        <mxCell id="qJNfwfcQ3lbtcBfEXmdF-51" value="" style="endArrow=none;html=1;rounded=0;" parent="1" source="qJNfwfcQ3lbtcBfEXmdF-77" target="qJNfwfcQ3lbtcBfEXmdF-9" edge="1">
          <mxGeometry width="50" height="50" relative="1" as="geometry">
            <mxPoint x="38.646288209607064" y="407.0960698689955" as="sourcePoint" />
            <mxPoint x="300" y="520" as="targetPoint" />
          </mxGeometry>
        </mxCell>
        <mxCell id="qJNfwfcQ3lbtcBfEXmdF-52" value="(1,N)" style="edgeLabel;html=1;align=center;verticalAlign=middle;resizable=0;points=[];" parent="qJNfwfcQ3lbtcBfEXmdF-51" vertex="1" connectable="0">
          <mxGeometry x="0.5626" y="1" relative="1" as="geometry">
            <mxPoint as="offset" />
          </mxGeometry>
        </mxCell>
        <mxCell id="qJNfwfcQ3lbtcBfEXmdF-59" value="" style="endArrow=none;html=1;rounded=0;" parent="1" source="cuRq2xwsvb8BkS9qzXSF-5" target="pUwQ2fJmEz475Cd50NN1-5" edge="1">
          <mxGeometry width="50" height="50" relative="1" as="geometry">
            <mxPoint x="467.6393202250024" y="432.1114561800023" as="sourcePoint" />
            <mxPoint x="20" y="260" as="targetPoint" />
          </mxGeometry>
        </mxCell>
        <mxCell id="qJNfwfcQ3lbtcBfEXmdF-60" value="" style="endArrow=none;html=1;rounded=0;" parent="1" source="qJNfwfcQ3lbtcBfEXmdF-95" target="pUwQ2fJmEz475Cd50NN1-5" edge="1">
          <mxGeometry width="50" height="50" relative="1" as="geometry">
            <mxPoint x="383.6301286227949" y="443.3068318421274" as="sourcePoint" />
            <mxPoint x="233.33333333333303" y="423.51" as="targetPoint" />
          </mxGeometry>
        </mxCell>
        <mxCell id="qJNfwfcQ3lbtcBfEXmdF-61" value="" style="endArrow=none;html=1;rounded=0;" parent="1" source="qJNfwfcQ3lbtcBfEXmdF-6" target="pUwQ2fJmEz475Cd50NN1-5" edge="1">
          <mxGeometry width="50" height="50" relative="1" as="geometry">
            <mxPoint x="100" y="580" as="sourcePoint" />
            <mxPoint x="150" y="530" as="targetPoint" />
          </mxGeometry>
        </mxCell>
        <mxCell id="qJNfwfcQ3lbtcBfEXmdF-64" value="" style="endArrow=none;html=1;rounded=0;" parent="1" source="pUwQ2fJmEz475Cd50NN1-31" target="pUwQ2fJmEz475Cd50NN1-35" edge="1">
          <mxGeometry width="50" height="50" relative="1" as="geometry">
            <mxPoint x="430" y="110" as="sourcePoint" />
            <mxPoint x="480" y="60" as="targetPoint" />
          </mxGeometry>
        </mxCell>
        <mxCell id="qJNfwfcQ3lbtcBfEXmdF-65" value="" style="endArrow=none;html=1;rounded=0;" parent="1" source="pUwQ2fJmEz475Cd50NN1-1" target="pUwQ2fJmEz475Cd50NN1-2" edge="1">
          <mxGeometry width="50" height="50" relative="1" as="geometry">
            <mxPoint x="325" y="-10" as="sourcePoint" />
            <mxPoint x="375" y="-60" as="targetPoint" />
          </mxGeometry>
        </mxCell>
        <mxCell id="qJNfwfcQ3lbtcBfEXmdF-67" value="" style="endArrow=none;html=1;rounded=0;" parent="1" source="pUwQ2fJmEz475Cd50NN1-1" target="pUwQ2fJmEz475Cd50NN1-23" edge="1">
          <mxGeometry width="50" height="50" relative="1" as="geometry">
            <mxPoint x="430" y="110" as="sourcePoint" />
            <mxPoint x="480" y="60" as="targetPoint" />
          </mxGeometry>
        </mxCell>
        <mxCell id="qJNfwfcQ3lbtcBfEXmdF-68" value="" style="endArrow=none;html=1;rounded=0;" parent="1" source="pUwQ2fJmEz475Cd50NN1-1" target="pUwQ2fJmEz475Cd50NN1-3" edge="1">
          <mxGeometry width="50" height="50" relative="1" as="geometry">
            <mxPoint x="260" y="50" as="sourcePoint" />
            <mxPoint x="310" as="targetPoint" />
          </mxGeometry>
        </mxCell>
        <mxCell id="qJNfwfcQ3lbtcBfEXmdF-71" value="" style="endArrow=none;html=1;rounded=0;" parent="1" source="pUwQ2fJmEz475Cd50NN1-22" target="pUwQ2fJmEz475Cd50NN1-24" edge="1">
          <mxGeometry relative="1" as="geometry">
            <mxPoint x="390" y="110" as="sourcePoint" />
            <mxPoint x="550" y="110" as="targetPoint" />
          </mxGeometry>
        </mxCell>
        <mxCell id="qJNfwfcQ3lbtcBfEXmdF-72" value="" style="endArrow=none;html=1;rounded=0;" parent="1" source="pUwQ2fJmEz475Cd50NN1-22" target="qJNfwfcQ3lbtcBfEXmdF-28" edge="1">
          <mxGeometry relative="1" as="geometry">
            <mxPoint x="390" y="110" as="sourcePoint" />
            <mxPoint x="550" y="110" as="targetPoint" />
          </mxGeometry>
        </mxCell>
        <mxCell id="qJNfwfcQ3lbtcBfEXmdF-73" value="" style="endArrow=none;html=1;rounded=0;" parent="1" source="pUwQ2fJmEz475Cd50NN1-22" target="pUwQ2fJmEz475Cd50NN1-14" edge="1">
          <mxGeometry relative="1" as="geometry">
            <mxPoint x="390" y="110" as="sourcePoint" />
            <mxPoint x="550" y="110" as="targetPoint" />
          </mxGeometry>
        </mxCell>
        <mxCell id="qJNfwfcQ3lbtcBfEXmdF-75" value="" style="shape=link;html=1;rounded=0;" parent="1" source="pUwQ2fJmEz475Cd50NN1-31" target="qJNfwfcQ3lbtcBfEXmdF-12" edge="1">
          <mxGeometry relative="1" as="geometry">
            <mxPoint x="390" y="170" as="sourcePoint" />
            <mxPoint x="550" y="170" as="targetPoint" />
          </mxGeometry>
        </mxCell>
        <mxCell id="qJNfwfcQ3lbtcBfEXmdF-77" value="boekt" style="shape=rhombus;perimeter=rhombusPerimeter;whiteSpace=wrap;html=1;align=center;" parent="1" vertex="1">
          <mxGeometry x="10" y="280" width="120" height="60" as="geometry" />
        </mxCell>
        <mxCell id="qJNfwfcQ3lbtcBfEXmdF-78" value="Kamer" style="whiteSpace=wrap;html=1;align=center;" parent="1" vertex="1">
          <mxGeometry x="20" y="385.87" width="100" height="40" as="geometry" />
        </mxCell>
        <mxCell id="qJNfwfcQ3lbtcBfEXmdF-83" value="Type" style="ellipse;whiteSpace=wrap;html=1;align=center;" parent="1" vertex="1">
          <mxGeometry x="-10" y="460" width="100" height="40" as="geometry" />
        </mxCell>
        <mxCell id="qJNfwfcQ3lbtcBfEXmdF-84" value="Capaciteit" style="ellipse;whiteSpace=wrap;html=1;align=center;" parent="1" vertex="1">
          <mxGeometry x="-110" y="425.87" width="100" height="40" as="geometry" />
        </mxCell>
        <mxCell id="qJNfwfcQ3lbtcBfEXmdF-86" value="Prijs" style="ellipse;whiteSpace=wrap;html=1;align=center;" parent="1" vertex="1">
          <mxGeometry x="100" y="460" width="100" height="40" as="geometry" />
        </mxCell>
        <mxCell id="qJNfwfcQ3lbtcBfEXmdF-87" value="" style="endArrow=none;html=1;rounded=0;" parent="1" source="qJNfwfcQ3lbtcBfEXmdF-78" target="qJNfwfcQ3lbtcBfEXmdF-84" edge="1">
          <mxGeometry relative="1" as="geometry">
            <mxPoint x="346" y="422.36" as="sourcePoint" />
            <mxPoint x="506" y="422.36" as="targetPoint" />
          </mxGeometry>
        </mxCell>
        <mxCell id="qJNfwfcQ3lbtcBfEXmdF-88" value="" style="endArrow=none;html=1;rounded=0;" parent="1" source="qJNfwfcQ3lbtcBfEXmdF-83" target="qJNfwfcQ3lbtcBfEXmdF-78" edge="1">
          <mxGeometry relative="1" as="geometry">
            <mxPoint x="346" y="422.36" as="sourcePoint" />
            <mxPoint x="506" y="422.36" as="targetPoint" />
          </mxGeometry>
        </mxCell>
        <mxCell id="qJNfwfcQ3lbtcBfEXmdF-89" value="" style="endArrow=none;html=1;rounded=0;" parent="1" source="qJNfwfcQ3lbtcBfEXmdF-86" target="qJNfwfcQ3lbtcBfEXmdF-78" edge="1">
          <mxGeometry relative="1" as="geometry">
            <mxPoint x="346" y="422.36" as="sourcePoint" />
            <mxPoint x="506" y="422.36" as="targetPoint" />
          </mxGeometry>
        </mxCell>
        <mxCell id="qJNfwfcQ3lbtcBfEXmdF-90" value="" style="endArrow=none;html=1;rounded=0;" parent="1" source="cuRq2xwsvb8BkS9qzXSF-6" target="qJNfwfcQ3lbtcBfEXmdF-78" edge="1">
          <mxGeometry relative="1" as="geometry">
            <mxPoint x="140.79938668706382" y="376.5637562490797" as="sourcePoint" />
            <mxPoint x="506" y="422.36" as="targetPoint" />
          </mxGeometry>
        </mxCell>
        <mxCell id="qJNfwfcQ3lbtcBfEXmdF-92" value="MaxPassagiers" style="ellipse;whiteSpace=wrap;html=1;align=center;" parent="1" vertex="1">
          <mxGeometry x="240" y="-40" width="100" height="40" as="geometry" />
        </mxCell>
        <mxCell id="qJNfwfcQ3lbtcBfEXmdF-94" value="" style="endArrow=none;html=1;rounded=0;" parent="1" source="qJNfwfcQ3lbtcBfEXmdF-92" target="pUwQ2fJmEz475Cd50NN1-1" edge="1">
          <mxGeometry relative="1" as="geometry">
            <mxPoint x="430" y="260" as="sourcePoint" />
            <mxPoint x="590" y="260" as="targetPoint" />
          </mxGeometry>
        </mxCell>
        <mxCell id="qJNfwfcQ3lbtcBfEXmdF-95" value="Prijs" style="ellipse;whiteSpace=wrap;html=1;align=center;" parent="1" vertex="1">
          <mxGeometry x="340" y="450" width="100" height="40" as="geometry" />
        </mxCell>
        <mxCell id="qJNfwfcQ3lbtcBfEXmdF-97" value="Email" style="ellipse;whiteSpace=wrap;html=1;align=center;" parent="1" vertex="1">
          <mxGeometry x="-55" y="10" width="100" height="40" as="geometry" />
        </mxCell>
        <mxCell id="qJNfwfcQ3lbtcBfEXmdF-98" value="Geslacht" style="ellipse;whiteSpace=wrap;html=1;align=center;" parent="1" vertex="1">
          <mxGeometry x="-120" y="50" width="100" height="40" as="geometry" />
        </mxCell>
        <mxCell id="qJNfwfcQ3lbtcBfEXmdF-101" value="Boeknummer" style="ellipse;whiteSpace=wrap;html=1;align=center;fontStyle=4;" parent="1" vertex="1">
          <mxGeometry x="-174" y="140" width="100" height="40" as="geometry" />
        </mxCell>
        <mxCell id="qJNfwfcQ3lbtcBfEXmdF-102" value="" style="endArrow=none;html=1;rounded=0;" parent="1" source="qJNfwfcQ3lbtcBfEXmdF-101" target="qJNfwfcQ3lbtcBfEXmdF-9" edge="1">
          <mxGeometry relative="1" as="geometry">
            <mxPoint x="210" y="170" as="sourcePoint" />
            <mxPoint x="370" y="170" as="targetPoint" />
          </mxGeometry>
        </mxCell>
        <mxCell id="qJNfwfcQ3lbtcBfEXmdF-103" value="" style="endArrow=none;html=1;rounded=0;" parent="1" source="pUwQ2fJmEz475Cd50NN1-31" target="qJNfwfcQ3lbtcBfEXmdF-98" edge="1">
          <mxGeometry relative="1" as="geometry">
            <mxPoint x="240" y="220" as="sourcePoint" />
            <mxPoint x="400" y="220" as="targetPoint" />
          </mxGeometry>
        </mxCell>
        <mxCell id="qJNfwfcQ3lbtcBfEXmdF-104" value="" style="endArrow=none;html=1;rounded=0;" parent="1" source="pUwQ2fJmEz475Cd50NN1-31" target="qJNfwfcQ3lbtcBfEXmdF-97" edge="1">
          <mxGeometry relative="1" as="geometry">
            <mxPoint x="240" y="220" as="sourcePoint" />
            <mxPoint x="400" y="220" as="targetPoint" />
          </mxGeometry>
        </mxCell>
        <mxCell id="qJNfwfcQ3lbtcBfEXmdF-105" value="" style="endArrow=none;html=1;rounded=0;" parent="1" source="pUwQ2fJmEz475Cd50NN1-31" target="wY1Jhq9nbb_D-YmXi5Cw-1" edge="1">
          <mxGeometry relative="1" as="geometry">
            <mxPoint x="240" y="220" as="sourcePoint" />
            <mxPoint x="111.43046618229482" y="38.56953381770518" as="targetPoint" />
          </mxGeometry>
        </mxCell>
        <mxCell id="DrXieHFXnKrN3Des5yO1-2" value="IMO-Nummer" style="ellipse;whiteSpace=wrap;html=1;align=center;fontStyle=4;" vertex="1" parent="1">
          <mxGeometry x="330" y="-90" width="100" height="40" as="geometry" />
        </mxCell>
        <mxCell id="DrXieHFXnKrN3Des5yO1-3" style="edgeStyle=orthogonalEdgeStyle;rounded=0;orthogonalLoop=1;jettySize=auto;html=1;exitX=0.5;exitY=1;exitDx=0;exitDy=0;" edge="1" parent="1" source="DrXieHFXnKrN3Des5yO1-2" target="DrXieHFXnKrN3Des5yO1-2">
          <mxGeometry relative="1" as="geometry" />
        </mxCell>
        <mxCell id="DrXieHFXnKrN3Des5yO1-4" value="" style="endArrow=none;html=1;rounded=0;" edge="1" parent="1" source="DrXieHFXnKrN3Des5yO1-2" target="pUwQ2fJmEz475Cd50NN1-1">
          <mxGeometry relative="1" as="geometry">
            <mxPoint x="400" y="80" as="sourcePoint" />
            <mxPoint x="560" y="80" as="targetPoint" />
          </mxGeometry>
        </mxCell>
        <mxCell id="cuRq2xwsvb8BkS9qzXSF-2" value="" style="endArrow=none;html=1;rounded=0;" edge="1" parent="1" source="pUwQ2fJmEz475Cd50NN1-22" target="5feP8xrwqYPuZHJrp24q-1">
          <mxGeometry relative="1" as="geometry">
            <mxPoint x="630" y="80" as="sourcePoint" />
            <mxPoint x="795.3734085905153" y="105.5722535793816" as="targetPoint" />
          </mxGeometry>
        </mxCell>
        <mxCell id="cuRq2xwsvb8BkS9qzXSF-5" value="Naam" style="ellipse;whiteSpace=wrap;html=1;align=center;fontStyle=4;" vertex="1" parent="1">
          <mxGeometry x="490" y="382.36" width="100" height="40" as="geometry" />
        </mxCell>
        <mxCell id="cuRq2xwsvb8BkS9qzXSF-6" value="Kamernummer" style="ellipse;whiteSpace=wrap;html=1;align=center;fontStyle=4;" vertex="1" parent="1">
          <mxGeometry x="-120" y="370" width="100" height="40" as="geometry" />
        </mxCell>
        <mxCell id="cuRq2xwsvb8BkS9qzXSF-8" value="Passagiernummer" style="ellipse;whiteSpace=wrap;html=1;align=center;fontStyle=4;" vertex="1" parent="1">
          <mxGeometry x="-40" y="-40" width="120" height="40" as="geometry" />
        </mxCell>
        <mxCell id="cuRq2xwsvb8BkS9qzXSF-9" value="" style="endArrow=none;html=1;rounded=0;" edge="1" parent="1" source="cuRq2xwsvb8BkS9qzXSF-8" target="pUwQ2fJmEz475Cd50NN1-31">
          <mxGeometry relative="1" as="geometry">
            <mxPoint x="280" y="130" as="sourcePoint" />
            <mxPoint x="440" y="130" as="targetPoint" />
          </mxGeometry>
        </mxCell>
        <mxCell id="wY1Jhq9nbb_D-YmXi5Cw-1" value="Geboortedatum" style="ellipse;whiteSpace=wrap;html=1;align=center;" vertex="1" parent="1">
          <mxGeometry x="110" y="-10" width="100" height="40" as="geometry" />
        </mxCell>
        <mxCell id="wY1Jhq9nbb_D-YmXi5Cw-2" value="Leeftijd" style="ellipse;whiteSpace=wrap;html=1;align=center;dashed=1;" vertex="1" parent="1">
          <mxGeometry x="110" y="100" width="100" height="40" as="geometry" />
        </mxCell>
        <mxCell id="wY1Jhq9nbb_D-YmXi5Cw-3" value="" style="endArrow=none;html=1;rounded=0;" edge="1" parent="1" source="pUwQ2fJmEz475Cd50NN1-31" target="wY1Jhq9nbb_D-YmXi5Cw-2">
          <mxGeometry relative="1" as="geometry">
            <mxPoint x="180" y="80" as="sourcePoint" />
            <mxPoint x="340" y="80" as="targetPoint" />
          </mxGeometry>
        </mxCell>
        <mxCell id="5feP8xrwqYPuZHJrp24q-1" value="Locatie" style="ellipse;whiteSpace=wrap;html=1;align=center;" vertex="1" parent="1">
          <mxGeometry x="827" y="80" width="100" height="40" as="geometry" />
        </mxCell>
        <mxCell id="5feP8xrwqYPuZHJrp24q-2" value="Havenid" style="ellipse;whiteSpace=wrap;html=1;align=center;fontStyle=4;" vertex="1" parent="1">
          <mxGeometry x="590" y="-50" width="100" height="40" as="geometry" />
        </mxCell>
        <mxCell id="5feP8xrwqYPuZHJrp24q-4" value="" style="endArrow=none;html=1;rounded=0;" edge="1" parent="1" source="5feP8xrwqYPuZHJrp24q-2" target="pUwQ2fJmEz475Cd50NN1-22">
          <mxGeometry relative="1" as="geometry">
            <mxPoint x="700" y="130" as="sourcePoint" />
            <mxPoint x="860" y="130" as="targetPoint" />
          </mxGeometry>
        </mxCell>
        <mxCell id="Md8f5wel5p4pY7qYxArj-1" value="Van" style="ellipse;whiteSpace=wrap;html=1;align=center;" vertex="1" parent="1">
          <mxGeometry x="450" y="160" width="100" height="40" as="geometry" />
        </mxCell>
        <mxCell id="Md8f5wel5p4pY7qYxArj-2" value="" style="endArrow=none;html=1;rounded=0;" edge="1" parent="1" source="pUwQ2fJmEz475Cd50NN1-6" target="Md8f5wel5p4pY7qYxArj-1">
          <mxGeometry relative="1" as="geometry">
            <mxPoint x="520" y="260" as="sourcePoint" />
            <mxPoint x="680" y="260" as="targetPoint" />
          </mxGeometry>
        </mxCell>
        <mxCell id="Md8f5wel5p4pY7qYxArj-3" value="Tot" style="ellipse;whiteSpace=wrap;html=1;align=center;" vertex="1" parent="1">
          <mxGeometry x="474" y="230" width="100" height="40" as="geometry" />
        </mxCell>
        <mxCell id="Md8f5wel5p4pY7qYxArj-4" value="" style="endArrow=none;html=1;rounded=0;" edge="1" parent="1" source="pUwQ2fJmEz475Cd50NN1-6" target="Md8f5wel5p4pY7qYxArj-3">
          <mxGeometry relative="1" as="geometry">
            <mxPoint x="520" y="260" as="sourcePoint" />
            <mxPoint x="680" y="260" as="targetPoint" />
          </mxGeometry>
        </mxCell>
        <mxCell id="Md8f5wel5p4pY7qYxArj-5" value="Van" style="ellipse;whiteSpace=wrap;html=1;align=center;" vertex="1" parent="1">
          <mxGeometry x="790" y="180" width="100" height="40" as="geometry" />
        </mxCell>
        <mxCell id="Md8f5wel5p4pY7qYxArj-6" value="Tot" style="ellipse;whiteSpace=wrap;html=1;align=center;" vertex="1" parent="1">
          <mxGeometry x="750" y="230" width="100" height="40" as="geometry" />
        </mxCell>
        <mxCell id="Md8f5wel5p4pY7qYxArj-7" value="" style="endArrow=none;html=1;rounded=0;" edge="1" parent="1" source="pUwQ2fJmEz475Cd50NN1-26" target="Md8f5wel5p4pY7qYxArj-5">
          <mxGeometry relative="1" as="geometry">
            <mxPoint x="490" y="230" as="sourcePoint" />
            <mxPoint x="650" y="230" as="targetPoint" />
          </mxGeometry>
        </mxCell>
        <mxCell id="Md8f5wel5p4pY7qYxArj-8" value="" style="endArrow=none;html=1;rounded=0;" edge="1" parent="1" source="pUwQ2fJmEz475Cd50NN1-26" target="Md8f5wel5p4pY7qYxArj-6">
          <mxGeometry relative="1" as="geometry">
            <mxPoint x="490" y="230" as="sourcePoint" />
            <mxPoint x="650" y="230" as="targetPoint" />
          </mxGeometry>
        </mxCell>
        <mxCell id="Md8f5wel5p4pY7qYxArj-9" value="Vaarroute" style="ellipse;whiteSpace=wrap;html=1;align=center;" vertex="1" parent="1">
          <mxGeometry x="264" y="410" width="100" height="40" as="geometry" />
        </mxCell>
        <mxCell id="Md8f5wel5p4pY7qYxArj-10" value="" style="endArrow=none;html=1;rounded=0;" edge="1" parent="1" source="Md8f5wel5p4pY7qYxArj-9" target="pUwQ2fJmEz475Cd50NN1-5">
          <mxGeometry relative="1" as="geometry">
            <mxPoint x="490" y="280" as="sourcePoint" />
            <mxPoint x="650" y="280" as="targetPoint" />
          </mxGeometry>
        </mxCell>
      </root>
    </mxGraphModel>
  </diagram>
  <diagram id="SP2dFEZDh3TPaswkHiMf" name="Pagina-2">
    <mxGraphModel dx="1877" dy="530" grid="1" gridSize="10" guides="1" tooltips="1" connect="1" arrows="1" fold="1" page="1" pageScale="1" pageWidth="827" pageHeight="1169" math="0" shadow="0">
      <root>
        <mxCell id="0" />
        <mxCell id="1" parent="0" />
        <mxCell id="puPzJixs3Y_ezsmxFopt-1" value="Passagier" style="shape=table;startSize=30;container=1;collapsible=1;childLayout=tableLayout;fixedRows=1;rowLines=0;fontStyle=1;align=center;resizeLast=1;html=1;" vertex="1" parent="1">
          <mxGeometry x="350" y="300" width="180" height="240" as="geometry">
            <mxRectangle x="40" y="70" width="90" height="30" as="alternateBounds" />
          </mxGeometry>
        </mxCell>
        <mxCell id="puPzJixs3Y_ezsmxFopt-2" value="" style="shape=tableRow;horizontal=0;startSize=0;swimlaneHead=0;swimlaneBody=0;fillColor=none;collapsible=0;dropTarget=0;points=[[0,0.5],[1,0.5]];portConstraint=eastwest;top=0;left=0;right=0;bottom=1;" vertex="1" parent="puPzJixs3Y_ezsmxFopt-1">
          <mxGeometry y="30" width="180" height="30" as="geometry" />
        </mxCell>
        <mxCell id="puPzJixs3Y_ezsmxFopt-3" value="PK" style="shape=partialRectangle;connectable=0;fillColor=none;top=0;left=0;bottom=0;right=0;fontStyle=1;overflow=hidden;whiteSpace=wrap;html=1;" vertex="1" parent="puPzJixs3Y_ezsmxFopt-2">
          <mxGeometry width="30" height="30" as="geometry">
            <mxRectangle width="30" height="30" as="alternateBounds" />
          </mxGeometry>
        </mxCell>
        <mxCell id="puPzJixs3Y_ezsmxFopt-4" value="Passagiernummer" style="shape=partialRectangle;connectable=0;fillColor=none;top=0;left=0;bottom=0;right=0;align=left;spacingLeft=6;fontStyle=5;overflow=hidden;whiteSpace=wrap;html=1;" vertex="1" parent="puPzJixs3Y_ezsmxFopt-2">
          <mxGeometry x="30" width="150" height="30" as="geometry">
            <mxRectangle width="150" height="30" as="alternateBounds" />
          </mxGeometry>
        </mxCell>
        <mxCell id="puPzJixs3Y_ezsmxFopt-5" value="" style="shape=tableRow;horizontal=0;startSize=0;swimlaneHead=0;swimlaneBody=0;fillColor=none;collapsible=0;dropTarget=0;points=[[0,0.5],[1,0.5]];portConstraint=eastwest;top=0;left=0;right=0;bottom=0;" vertex="1" parent="puPzJixs3Y_ezsmxFopt-1">
          <mxGeometry y="60" width="180" height="30" as="geometry" />
        </mxCell>
        <mxCell id="puPzJixs3Y_ezsmxFopt-6" value="" style="shape=partialRectangle;connectable=0;fillColor=none;top=0;left=0;bottom=0;right=0;editable=1;overflow=hidden;whiteSpace=wrap;html=1;" vertex="1" parent="puPzJixs3Y_ezsmxFopt-5">
          <mxGeometry width="30" height="30" as="geometry">
            <mxRectangle width="30" height="30" as="alternateBounds" />
          </mxGeometry>
        </mxCell>
        <mxCell id="puPzJixs3Y_ezsmxFopt-7" value="Geslacht" style="shape=partialRectangle;connectable=0;fillColor=none;top=0;left=0;bottom=0;right=0;align=left;spacingLeft=6;overflow=hidden;whiteSpace=wrap;html=1;" vertex="1" parent="puPzJixs3Y_ezsmxFopt-5">
          <mxGeometry x="30" width="150" height="30" as="geometry">
            <mxRectangle width="150" height="30" as="alternateBounds" />
          </mxGeometry>
        </mxCell>
        <mxCell id="puPzJixs3Y_ezsmxFopt-8" value="" style="shape=tableRow;horizontal=0;startSize=0;swimlaneHead=0;swimlaneBody=0;fillColor=none;collapsible=0;dropTarget=0;points=[[0,0.5],[1,0.5]];portConstraint=eastwest;top=0;left=0;right=0;bottom=0;" vertex="1" parent="puPzJixs3Y_ezsmxFopt-1">
          <mxGeometry y="90" width="180" height="30" as="geometry" />
        </mxCell>
        <mxCell id="puPzJixs3Y_ezsmxFopt-9" value="" style="shape=partialRectangle;connectable=0;fillColor=none;top=0;left=0;bottom=0;right=0;editable=1;overflow=hidden;whiteSpace=wrap;html=1;" vertex="1" parent="puPzJixs3Y_ezsmxFopt-8">
          <mxGeometry width="30" height="30" as="geometry">
            <mxRectangle width="30" height="30" as="alternateBounds" />
          </mxGeometry>
        </mxCell>
        <mxCell id="puPzJixs3Y_ezsmxFopt-10" value="Naam" style="shape=partialRectangle;connectable=0;fillColor=none;top=0;left=0;bottom=0;right=0;align=left;spacingLeft=6;overflow=hidden;whiteSpace=wrap;html=1;" vertex="1" parent="puPzJixs3Y_ezsmxFopt-8">
          <mxGeometry x="30" width="150" height="30" as="geometry">
            <mxRectangle width="150" height="30" as="alternateBounds" />
          </mxGeometry>
        </mxCell>
        <mxCell id="puPzJixs3Y_ezsmxFopt-11" value="" style="shape=tableRow;horizontal=0;startSize=0;swimlaneHead=0;swimlaneBody=0;fillColor=none;collapsible=0;dropTarget=0;points=[[0,0.5],[1,0.5]];portConstraint=eastwest;top=0;left=0;right=0;bottom=0;" vertex="1" parent="puPzJixs3Y_ezsmxFopt-1">
          <mxGeometry y="120" width="180" height="30" as="geometry" />
        </mxCell>
        <mxCell id="puPzJixs3Y_ezsmxFopt-12" value="" style="shape=partialRectangle;connectable=0;fillColor=none;top=0;left=0;bottom=0;right=0;editable=1;overflow=hidden;whiteSpace=wrap;html=1;" vertex="1" parent="puPzJixs3Y_ezsmxFopt-11">
          <mxGeometry width="30" height="30" as="geometry">
            <mxRectangle width="30" height="30" as="alternateBounds" />
          </mxGeometry>
        </mxCell>
        <mxCell id="puPzJixs3Y_ezsmxFopt-13" value="Voornaam" style="shape=partialRectangle;connectable=0;fillColor=none;top=0;left=0;bottom=0;right=0;align=left;spacingLeft=6;overflow=hidden;whiteSpace=wrap;html=1;" vertex="1" parent="puPzJixs3Y_ezsmxFopt-11">
          <mxGeometry x="30" width="150" height="30" as="geometry">
            <mxRectangle width="150" height="30" as="alternateBounds" />
          </mxGeometry>
        </mxCell>
        <mxCell id="Pe2dDLbw_RBHANyiowEr-5" value="" style="shape=tableRow;horizontal=0;startSize=0;swimlaneHead=0;swimlaneBody=0;fillColor=none;collapsible=0;dropTarget=0;points=[[0,0.5],[1,0.5]];portConstraint=eastwest;top=0;left=0;right=0;bottom=0;" vertex="1" parent="puPzJixs3Y_ezsmxFopt-1">
          <mxGeometry y="150" width="180" height="30" as="geometry" />
        </mxCell>
        <mxCell id="Pe2dDLbw_RBHANyiowEr-6" value="" style="shape=partialRectangle;connectable=0;fillColor=none;top=0;left=0;bottom=0;right=0;editable=1;overflow=hidden;whiteSpace=wrap;html=1;" vertex="1" parent="Pe2dDLbw_RBHANyiowEr-5">
          <mxGeometry width="30" height="30" as="geometry">
            <mxRectangle width="30" height="30" as="alternateBounds" />
          </mxGeometry>
        </mxCell>
        <mxCell id="Pe2dDLbw_RBHANyiowEr-7" value="E-mail" style="shape=partialRectangle;connectable=0;fillColor=none;top=0;left=0;bottom=0;right=0;align=left;spacingLeft=6;overflow=hidden;whiteSpace=wrap;html=1;" vertex="1" parent="Pe2dDLbw_RBHANyiowEr-5">
          <mxGeometry x="30" width="150" height="30" as="geometry">
            <mxRectangle width="150" height="30" as="alternateBounds" />
          </mxGeometry>
        </mxCell>
        <mxCell id="Pe2dDLbw_RBHANyiowEr-8" value="" style="shape=tableRow;horizontal=0;startSize=0;swimlaneHead=0;swimlaneBody=0;fillColor=none;collapsible=0;dropTarget=0;points=[[0,0.5],[1,0.5]];portConstraint=eastwest;top=0;left=0;right=0;bottom=0;" vertex="1" parent="puPzJixs3Y_ezsmxFopt-1">
          <mxGeometry y="180" width="180" height="30" as="geometry" />
        </mxCell>
        <mxCell id="Pe2dDLbw_RBHANyiowEr-9" value="" style="shape=partialRectangle;connectable=0;fillColor=none;top=0;left=0;bottom=0;right=0;editable=1;overflow=hidden;whiteSpace=wrap;html=1;" vertex="1" parent="Pe2dDLbw_RBHANyiowEr-8">
          <mxGeometry width="30" height="30" as="geometry">
            <mxRectangle width="30" height="30" as="alternateBounds" />
          </mxGeometry>
        </mxCell>
        <mxCell id="Pe2dDLbw_RBHANyiowEr-10" value="Geboortedatum" style="shape=partialRectangle;connectable=0;fillColor=none;top=0;left=0;bottom=0;right=0;align=left;spacingLeft=6;overflow=hidden;whiteSpace=wrap;html=1;" vertex="1" parent="Pe2dDLbw_RBHANyiowEr-8">
          <mxGeometry x="30" width="150" height="30" as="geometry">
            <mxRectangle width="150" height="30" as="alternateBounds" />
          </mxGeometry>
        </mxCell>
        <mxCell id="pCuK5iy9w1Gr5tuQB178-20" value="" style="shape=tableRow;horizontal=0;startSize=0;swimlaneHead=0;swimlaneBody=0;fillColor=none;collapsible=0;dropTarget=0;points=[[0,0.5],[1,0.5]];portConstraint=eastwest;top=0;left=0;right=0;bottom=0;" vertex="1" parent="puPzJixs3Y_ezsmxFopt-1">
          <mxGeometry y="210" width="180" height="30" as="geometry" />
        </mxCell>
        <mxCell id="pCuK5iy9w1Gr5tuQB178-21" value="FK1" style="shape=partialRectangle;connectable=0;fillColor=none;top=0;left=0;bottom=0;right=0;editable=1;overflow=hidden;whiteSpace=wrap;html=1;" vertex="1" parent="pCuK5iy9w1Gr5tuQB178-20">
          <mxGeometry width="30" height="30" as="geometry">
            <mxRectangle width="30" height="30" as="alternateBounds" />
          </mxGeometry>
        </mxCell>
        <mxCell id="pCuK5iy9w1Gr5tuQB178-22" value="Schip_IMO-nummer" style="shape=partialRectangle;connectable=0;fillColor=none;top=0;left=0;bottom=0;right=0;align=left;spacingLeft=6;overflow=hidden;whiteSpace=wrap;html=1;" vertex="1" parent="pCuK5iy9w1Gr5tuQB178-20">
          <mxGeometry x="30" width="150" height="30" as="geometry">
            <mxRectangle width="150" height="30" as="alternateBounds" />
          </mxGeometry>
        </mxCell>
        <mxCell id="xrF1tiFnhXxIQekbWCMH-1" value="Schip" style="shape=table;startSize=30;container=1;collapsible=1;childLayout=tableLayout;fixedRows=1;rowLines=0;fontStyle=1;align=center;resizeLast=1;html=1;" vertex="1" parent="1">
          <mxGeometry x="70" y="290" width="180" height="180" as="geometry" />
        </mxCell>
        <mxCell id="xrF1tiFnhXxIQekbWCMH-2" value="" style="shape=tableRow;horizontal=0;startSize=0;swimlaneHead=0;swimlaneBody=0;fillColor=none;collapsible=0;dropTarget=0;points=[[0,0.5],[1,0.5]];portConstraint=eastwest;top=0;left=0;right=0;bottom=1;" vertex="1" parent="xrF1tiFnhXxIQekbWCMH-1">
          <mxGeometry y="30" width="180" height="30" as="geometry" />
        </mxCell>
        <mxCell id="xrF1tiFnhXxIQekbWCMH-3" value="PK" style="shape=partialRectangle;connectable=0;fillColor=none;top=0;left=0;bottom=0;right=0;fontStyle=1;overflow=hidden;whiteSpace=wrap;html=1;" vertex="1" parent="xrF1tiFnhXxIQekbWCMH-2">
          <mxGeometry width="30" height="30" as="geometry">
            <mxRectangle width="30" height="30" as="alternateBounds" />
          </mxGeometry>
        </mxCell>
        <mxCell id="xrF1tiFnhXxIQekbWCMH-4" value="IMO-Nummer" style="shape=partialRectangle;connectable=0;fillColor=none;top=0;left=0;bottom=0;right=0;align=left;spacingLeft=6;fontStyle=5;overflow=hidden;whiteSpace=wrap;html=1;" vertex="1" parent="xrF1tiFnhXxIQekbWCMH-2">
          <mxGeometry x="30" width="150" height="30" as="geometry">
            <mxRectangle width="150" height="30" as="alternateBounds" />
          </mxGeometry>
        </mxCell>
        <mxCell id="xrF1tiFnhXxIQekbWCMH-5" value="" style="shape=tableRow;horizontal=0;startSize=0;swimlaneHead=0;swimlaneBody=0;fillColor=none;collapsible=0;dropTarget=0;points=[[0,0.5],[1,0.5]];portConstraint=eastwest;top=0;left=0;right=0;bottom=0;" vertex="1" parent="xrF1tiFnhXxIQekbWCMH-1">
          <mxGeometry y="60" width="180" height="30" as="geometry" />
        </mxCell>
        <mxCell id="xrF1tiFnhXxIQekbWCMH-6" value="" style="shape=partialRectangle;connectable=0;fillColor=none;top=0;left=0;bottom=0;right=0;editable=1;overflow=hidden;whiteSpace=wrap;html=1;" vertex="1" parent="xrF1tiFnhXxIQekbWCMH-5">
          <mxGeometry width="30" height="30" as="geometry">
            <mxRectangle width="30" height="30" as="alternateBounds" />
          </mxGeometry>
        </mxCell>
        <mxCell id="xrF1tiFnhXxIQekbWCMH-7" value="Naam" style="shape=partialRectangle;connectable=0;fillColor=none;top=0;left=0;bottom=0;right=0;align=left;spacingLeft=6;overflow=hidden;whiteSpace=wrap;html=1;" vertex="1" parent="xrF1tiFnhXxIQekbWCMH-5">
          <mxGeometry x="30" width="150" height="30" as="geometry">
            <mxRectangle width="150" height="30" as="alternateBounds" />
          </mxGeometry>
        </mxCell>
        <mxCell id="xrF1tiFnhXxIQekbWCMH-8" value="" style="shape=tableRow;horizontal=0;startSize=0;swimlaneHead=0;swimlaneBody=0;fillColor=none;collapsible=0;dropTarget=0;points=[[0,0.5],[1,0.5]];portConstraint=eastwest;top=0;left=0;right=0;bottom=0;" vertex="1" parent="xrF1tiFnhXxIQekbWCMH-1">
          <mxGeometry y="90" width="180" height="30" as="geometry" />
        </mxCell>
        <mxCell id="xrF1tiFnhXxIQekbWCMH-9" value="" style="shape=partialRectangle;connectable=0;fillColor=none;top=0;left=0;bottom=0;right=0;editable=1;overflow=hidden;whiteSpace=wrap;html=1;" vertex="1" parent="xrF1tiFnhXxIQekbWCMH-8">
          <mxGeometry width="30" height="30" as="geometry">
            <mxRectangle width="30" height="30" as="alternateBounds" />
          </mxGeometry>
        </mxCell>
        <mxCell id="xrF1tiFnhXxIQekbWCMH-10" value="MaxPassagiers" style="shape=partialRectangle;connectable=0;fillColor=none;top=0;left=0;bottom=0;right=0;align=left;spacingLeft=6;overflow=hidden;whiteSpace=wrap;html=1;" vertex="1" parent="xrF1tiFnhXxIQekbWCMH-8">
          <mxGeometry x="30" width="150" height="30" as="geometry">
            <mxRectangle width="150" height="30" as="alternateBounds" />
          </mxGeometry>
        </mxCell>
        <mxCell id="xrF1tiFnhXxIQekbWCMH-11" value="" style="shape=tableRow;horizontal=0;startSize=0;swimlaneHead=0;swimlaneBody=0;fillColor=none;collapsible=0;dropTarget=0;points=[[0,0.5],[1,0.5]];portConstraint=eastwest;top=0;left=0;right=0;bottom=0;" vertex="1" parent="xrF1tiFnhXxIQekbWCMH-1">
          <mxGeometry y="120" width="180" height="30" as="geometry" />
        </mxCell>
        <mxCell id="xrF1tiFnhXxIQekbWCMH-12" value="" style="shape=partialRectangle;connectable=0;fillColor=none;top=0;left=0;bottom=0;right=0;editable=1;overflow=hidden;whiteSpace=wrap;html=1;" vertex="1" parent="xrF1tiFnhXxIQekbWCMH-11">
          <mxGeometry width="30" height="30" as="geometry">
            <mxRectangle width="30" height="30" as="alternateBounds" />
          </mxGeometry>
        </mxCell>
        <mxCell id="xrF1tiFnhXxIQekbWCMH-13" value="Diepgang" style="shape=partialRectangle;connectable=0;fillColor=none;top=0;left=0;bottom=0;right=0;align=left;spacingLeft=6;overflow=hidden;whiteSpace=wrap;html=1;" vertex="1" parent="xrF1tiFnhXxIQekbWCMH-11">
          <mxGeometry x="30" width="150" height="30" as="geometry">
            <mxRectangle width="150" height="30" as="alternateBounds" />
          </mxGeometry>
        </mxCell>
        <mxCell id="6b2Aim2FIcS73Rj_dg3k-1" value="" style="shape=tableRow;horizontal=0;startSize=0;swimlaneHead=0;swimlaneBody=0;fillColor=none;collapsible=0;dropTarget=0;points=[[0,0.5],[1,0.5]];portConstraint=eastwest;top=0;left=0;right=0;bottom=0;" vertex="1" parent="xrF1tiFnhXxIQekbWCMH-1">
          <mxGeometry y="150" width="180" height="30" as="geometry" />
        </mxCell>
        <mxCell id="6b2Aim2FIcS73Rj_dg3k-2" value="" style="shape=partialRectangle;connectable=0;fillColor=none;top=0;left=0;bottom=0;right=0;editable=1;overflow=hidden;whiteSpace=wrap;html=1;" vertex="1" parent="6b2Aim2FIcS73Rj_dg3k-1">
          <mxGeometry width="30" height="30" as="geometry">
            <mxRectangle width="30" height="30" as="alternateBounds" />
          </mxGeometry>
        </mxCell>
        <mxCell id="6b2Aim2FIcS73Rj_dg3k-3" value="Passagiers" style="shape=partialRectangle;connectable=0;fillColor=none;top=0;left=0;bottom=0;right=0;align=left;spacingLeft=6;overflow=hidden;whiteSpace=wrap;html=1;" vertex="1" parent="6b2Aim2FIcS73Rj_dg3k-1">
          <mxGeometry x="30" width="150" height="30" as="geometry">
            <mxRectangle width="150" height="30" as="alternateBounds" />
          </mxGeometry>
        </mxCell>
        <mxCell id="xrF1tiFnhXxIQekbWCMH-14" value="Haven" style="shape=table;startSize=30;container=1;collapsible=1;childLayout=tableLayout;fixedRows=1;rowLines=0;fontStyle=1;align=center;resizeLast=1;html=1;" vertex="1" parent="1">
          <mxGeometry x="620" y="640" width="180" height="150" as="geometry" />
        </mxCell>
        <mxCell id="xrF1tiFnhXxIQekbWCMH-15" value="" style="shape=tableRow;horizontal=0;startSize=0;swimlaneHead=0;swimlaneBody=0;fillColor=none;collapsible=0;dropTarget=0;points=[[0,0.5],[1,0.5]];portConstraint=eastwest;top=0;left=0;right=0;bottom=1;" vertex="1" parent="xrF1tiFnhXxIQekbWCMH-14">
          <mxGeometry y="30" width="180" height="30" as="geometry" />
        </mxCell>
        <mxCell id="xrF1tiFnhXxIQekbWCMH-16" value="PK" style="shape=partialRectangle;connectable=0;fillColor=none;top=0;left=0;bottom=0;right=0;fontStyle=1;overflow=hidden;whiteSpace=wrap;html=1;" vertex="1" parent="xrF1tiFnhXxIQekbWCMH-15">
          <mxGeometry width="30" height="30" as="geometry">
            <mxRectangle width="30" height="30" as="alternateBounds" />
          </mxGeometry>
        </mxCell>
        <mxCell id="xrF1tiFnhXxIQekbWCMH-17" value="Havenid" style="shape=partialRectangle;connectable=0;fillColor=none;top=0;left=0;bottom=0;right=0;align=left;spacingLeft=6;fontStyle=5;overflow=hidden;whiteSpace=wrap;html=1;" vertex="1" parent="xrF1tiFnhXxIQekbWCMH-15">
          <mxGeometry x="30" width="150" height="30" as="geometry">
            <mxRectangle width="150" height="30" as="alternateBounds" />
          </mxGeometry>
        </mxCell>
        <mxCell id="xrF1tiFnhXxIQekbWCMH-18" value="" style="shape=tableRow;horizontal=0;startSize=0;swimlaneHead=0;swimlaneBody=0;fillColor=none;collapsible=0;dropTarget=0;points=[[0,0.5],[1,0.5]];portConstraint=eastwest;top=0;left=0;right=0;bottom=0;" vertex="1" parent="xrF1tiFnhXxIQekbWCMH-14">
          <mxGeometry y="60" width="180" height="30" as="geometry" />
        </mxCell>
        <mxCell id="xrF1tiFnhXxIQekbWCMH-19" value="" style="shape=partialRectangle;connectable=0;fillColor=none;top=0;left=0;bottom=0;right=0;editable=1;overflow=hidden;whiteSpace=wrap;html=1;" vertex="1" parent="xrF1tiFnhXxIQekbWCMH-18">
          <mxGeometry width="30" height="30" as="geometry">
            <mxRectangle width="30" height="30" as="alternateBounds" />
          </mxGeometry>
        </mxCell>
        <mxCell id="xrF1tiFnhXxIQekbWCMH-20" value="Grootte" style="shape=partialRectangle;connectable=0;fillColor=none;top=0;left=0;bottom=0;right=0;align=left;spacingLeft=6;overflow=hidden;whiteSpace=wrap;html=1;" vertex="1" parent="xrF1tiFnhXxIQekbWCMH-18">
          <mxGeometry x="30" width="150" height="30" as="geometry">
            <mxRectangle width="150" height="30" as="alternateBounds" />
          </mxGeometry>
        </mxCell>
        <mxCell id="xrF1tiFnhXxIQekbWCMH-21" value="" style="shape=tableRow;horizontal=0;startSize=0;swimlaneHead=0;swimlaneBody=0;fillColor=none;collapsible=0;dropTarget=0;points=[[0,0.5],[1,0.5]];portConstraint=eastwest;top=0;left=0;right=0;bottom=0;" vertex="1" parent="xrF1tiFnhXxIQekbWCMH-14">
          <mxGeometry y="90" width="180" height="30" as="geometry" />
        </mxCell>
        <mxCell id="xrF1tiFnhXxIQekbWCMH-22" value="" style="shape=partialRectangle;connectable=0;fillColor=none;top=0;left=0;bottom=0;right=0;editable=1;overflow=hidden;whiteSpace=wrap;html=1;" vertex="1" parent="xrF1tiFnhXxIQekbWCMH-21">
          <mxGeometry width="30" height="30" as="geometry">
            <mxRectangle width="30" height="30" as="alternateBounds" />
          </mxGeometry>
        </mxCell>
        <mxCell id="xrF1tiFnhXxIQekbWCMH-23" value="Diepgang" style="shape=partialRectangle;connectable=0;fillColor=none;top=0;left=0;bottom=0;right=0;align=left;spacingLeft=6;overflow=hidden;whiteSpace=wrap;html=1;" vertex="1" parent="xrF1tiFnhXxIQekbWCMH-21">
          <mxGeometry x="30" width="150" height="30" as="geometry">
            <mxRectangle width="150" height="30" as="alternateBounds" />
          </mxGeometry>
        </mxCell>
        <mxCell id="UFpHlBcKBbtu5VMVHPIU-1" value="" style="shape=tableRow;horizontal=0;startSize=0;swimlaneHead=0;swimlaneBody=0;fillColor=none;collapsible=0;dropTarget=0;points=[[0,0.5],[1,0.5]];portConstraint=eastwest;top=0;left=0;right=0;bottom=0;" vertex="1" parent="xrF1tiFnhXxIQekbWCMH-14">
          <mxGeometry y="120" width="180" height="30" as="geometry" />
        </mxCell>
        <mxCell id="UFpHlBcKBbtu5VMVHPIU-2" value="" style="shape=partialRectangle;connectable=0;fillColor=none;top=0;left=0;bottom=0;right=0;editable=1;overflow=hidden;whiteSpace=wrap;html=1;" vertex="1" parent="UFpHlBcKBbtu5VMVHPIU-1">
          <mxGeometry width="30" height="30" as="geometry">
            <mxRectangle width="30" height="30" as="alternateBounds" />
          </mxGeometry>
        </mxCell>
        <mxCell id="UFpHlBcKBbtu5VMVHPIU-3" value="Locatie" style="shape=partialRectangle;connectable=0;fillColor=none;top=0;left=0;bottom=0;right=0;align=left;spacingLeft=6;overflow=hidden;whiteSpace=wrap;html=1;" vertex="1" parent="UFpHlBcKBbtu5VMVHPIU-1">
          <mxGeometry x="30" width="150" height="30" as="geometry">
            <mxRectangle width="150" height="30" as="alternateBounds" />
          </mxGeometry>
        </mxCell>
        <mxCell id="ozmnLlkfWjM1kBZPzuI--1" value="Kamer" style="shape=table;startSize=30;container=1;collapsible=1;childLayout=tableLayout;fixedRows=1;rowLines=0;fontStyle=1;align=center;resizeLast=1;html=1;" vertex="1" parent="1">
          <mxGeometry x="370" y="60" width="180" height="150" as="geometry" />
        </mxCell>
        <mxCell id="ozmnLlkfWjM1kBZPzuI--2" value="" style="shape=tableRow;horizontal=0;startSize=0;swimlaneHead=0;swimlaneBody=0;fillColor=none;collapsible=0;dropTarget=0;points=[[0,0.5],[1,0.5]];portConstraint=eastwest;top=0;left=0;right=0;bottom=1;" vertex="1" parent="ozmnLlkfWjM1kBZPzuI--1">
          <mxGeometry y="30" width="180" height="30" as="geometry" />
        </mxCell>
        <mxCell id="ozmnLlkfWjM1kBZPzuI--3" value="PK" style="shape=partialRectangle;connectable=0;fillColor=none;top=0;left=0;bottom=0;right=0;fontStyle=1;overflow=hidden;whiteSpace=wrap;html=1;" vertex="1" parent="ozmnLlkfWjM1kBZPzuI--2">
          <mxGeometry width="30" height="30" as="geometry">
            <mxRectangle width="30" height="30" as="alternateBounds" />
          </mxGeometry>
        </mxCell>
        <mxCell id="ozmnLlkfWjM1kBZPzuI--4" value="Kamernummer" style="shape=partialRectangle;connectable=0;fillColor=none;top=0;left=0;bottom=0;right=0;align=left;spacingLeft=6;fontStyle=5;overflow=hidden;whiteSpace=wrap;html=1;" vertex="1" parent="ozmnLlkfWjM1kBZPzuI--2">
          <mxGeometry x="30" width="150" height="30" as="geometry">
            <mxRectangle width="150" height="30" as="alternateBounds" />
          </mxGeometry>
        </mxCell>
        <mxCell id="ozmnLlkfWjM1kBZPzuI--5" value="" style="shape=tableRow;horizontal=0;startSize=0;swimlaneHead=0;swimlaneBody=0;fillColor=none;collapsible=0;dropTarget=0;points=[[0,0.5],[1,0.5]];portConstraint=eastwest;top=0;left=0;right=0;bottom=0;" vertex="1" parent="ozmnLlkfWjM1kBZPzuI--1">
          <mxGeometry y="60" width="180" height="30" as="geometry" />
        </mxCell>
        <mxCell id="ozmnLlkfWjM1kBZPzuI--6" value="" style="shape=partialRectangle;connectable=0;fillColor=none;top=0;left=0;bottom=0;right=0;editable=1;overflow=hidden;whiteSpace=wrap;html=1;" vertex="1" parent="ozmnLlkfWjM1kBZPzuI--5">
          <mxGeometry width="30" height="30" as="geometry">
            <mxRectangle width="30" height="30" as="alternateBounds" />
          </mxGeometry>
        </mxCell>
        <mxCell id="ozmnLlkfWjM1kBZPzuI--7" value="Capaciteit" style="shape=partialRectangle;connectable=0;fillColor=none;top=0;left=0;bottom=0;right=0;align=left;spacingLeft=6;overflow=hidden;whiteSpace=wrap;html=1;" vertex="1" parent="ozmnLlkfWjM1kBZPzuI--5">
          <mxGeometry x="30" width="150" height="30" as="geometry">
            <mxRectangle width="150" height="30" as="alternateBounds" />
          </mxGeometry>
        </mxCell>
        <mxCell id="ozmnLlkfWjM1kBZPzuI--8" value="" style="shape=tableRow;horizontal=0;startSize=0;swimlaneHead=0;swimlaneBody=0;fillColor=none;collapsible=0;dropTarget=0;points=[[0,0.5],[1,0.5]];portConstraint=eastwest;top=0;left=0;right=0;bottom=0;" vertex="1" parent="ozmnLlkfWjM1kBZPzuI--1">
          <mxGeometry y="90" width="180" height="30" as="geometry" />
        </mxCell>
        <mxCell id="ozmnLlkfWjM1kBZPzuI--9" value="" style="shape=partialRectangle;connectable=0;fillColor=none;top=0;left=0;bottom=0;right=0;editable=1;overflow=hidden;whiteSpace=wrap;html=1;" vertex="1" parent="ozmnLlkfWjM1kBZPzuI--8">
          <mxGeometry width="30" height="30" as="geometry">
            <mxRectangle width="30" height="30" as="alternateBounds" />
          </mxGeometry>
        </mxCell>
        <mxCell id="ozmnLlkfWjM1kBZPzuI--10" value="Prijs" style="shape=partialRectangle;connectable=0;fillColor=none;top=0;left=0;bottom=0;right=0;align=left;spacingLeft=6;overflow=hidden;whiteSpace=wrap;html=1;" vertex="1" parent="ozmnLlkfWjM1kBZPzuI--8">
          <mxGeometry x="30" width="150" height="30" as="geometry">
            <mxRectangle width="150" height="30" as="alternateBounds" />
          </mxGeometry>
        </mxCell>
        <mxCell id="ozmnLlkfWjM1kBZPzuI--11" value="" style="shape=tableRow;horizontal=0;startSize=0;swimlaneHead=0;swimlaneBody=0;fillColor=none;collapsible=0;dropTarget=0;points=[[0,0.5],[1,0.5]];portConstraint=eastwest;top=0;left=0;right=0;bottom=0;" vertex="1" parent="ozmnLlkfWjM1kBZPzuI--1">
          <mxGeometry y="120" width="180" height="30" as="geometry" />
        </mxCell>
        <mxCell id="ozmnLlkfWjM1kBZPzuI--12" value="" style="shape=partialRectangle;connectable=0;fillColor=none;top=0;left=0;bottom=0;right=0;editable=1;overflow=hidden;whiteSpace=wrap;html=1;" vertex="1" parent="ozmnLlkfWjM1kBZPzuI--11">
          <mxGeometry width="30" height="30" as="geometry">
            <mxRectangle width="30" height="30" as="alternateBounds" />
          </mxGeometry>
        </mxCell>
        <mxCell id="ozmnLlkfWjM1kBZPzuI--13" value="Type" style="shape=partialRectangle;connectable=0;fillColor=none;top=0;left=0;bottom=0;right=0;align=left;spacingLeft=6;overflow=hidden;whiteSpace=wrap;html=1;" vertex="1" parent="ozmnLlkfWjM1kBZPzuI--11">
          <mxGeometry x="30" width="150" height="30" as="geometry">
            <mxRectangle width="150" height="30" as="alternateBounds" />
          </mxGeometry>
        </mxCell>
        <mxCell id="ozmnLlkfWjM1kBZPzuI--14" value="Cruise" style="shape=table;startSize=30;container=1;collapsible=1;childLayout=tableLayout;fixedRows=1;rowLines=0;fontStyle=1;align=center;resizeLast=1;html=1;" vertex="1" parent="1">
          <mxGeometry x="80" y="640" width="180" height="150" as="geometry" />
        </mxCell>
        <mxCell id="ozmnLlkfWjM1kBZPzuI--15" value="" style="shape=tableRow;horizontal=0;startSize=0;swimlaneHead=0;swimlaneBody=0;fillColor=none;collapsible=0;dropTarget=0;points=[[0,0.5],[1,0.5]];portConstraint=eastwest;top=0;left=0;right=0;bottom=1;" vertex="1" parent="ozmnLlkfWjM1kBZPzuI--14">
          <mxGeometry y="30" width="180" height="30" as="geometry" />
        </mxCell>
        <mxCell id="ozmnLlkfWjM1kBZPzuI--16" value="PK" style="shape=partialRectangle;connectable=0;fillColor=none;top=0;left=0;bottom=0;right=0;fontStyle=1;overflow=hidden;whiteSpace=wrap;html=1;" vertex="1" parent="ozmnLlkfWjM1kBZPzuI--15">
          <mxGeometry width="30" height="30" as="geometry">
            <mxRectangle width="30" height="30" as="alternateBounds" />
          </mxGeometry>
        </mxCell>
        <mxCell id="ozmnLlkfWjM1kBZPzuI--17" value="Naam" style="shape=partialRectangle;connectable=0;fillColor=none;top=0;left=0;bottom=0;right=0;align=left;spacingLeft=6;fontStyle=5;overflow=hidden;whiteSpace=wrap;html=1;" vertex="1" parent="ozmnLlkfWjM1kBZPzuI--15">
          <mxGeometry x="30" width="150" height="30" as="geometry">
            <mxRectangle width="150" height="30" as="alternateBounds" />
          </mxGeometry>
        </mxCell>
        <mxCell id="ozmnLlkfWjM1kBZPzuI--18" value="" style="shape=tableRow;horizontal=0;startSize=0;swimlaneHead=0;swimlaneBody=0;fillColor=none;collapsible=0;dropTarget=0;points=[[0,0.5],[1,0.5]];portConstraint=eastwest;top=0;left=0;right=0;bottom=0;" vertex="1" parent="ozmnLlkfWjM1kBZPzuI--14">
          <mxGeometry y="60" width="180" height="30" as="geometry" />
        </mxCell>
        <mxCell id="ozmnLlkfWjM1kBZPzuI--19" value="" style="shape=partialRectangle;connectable=0;fillColor=none;top=0;left=0;bottom=0;right=0;editable=1;overflow=hidden;whiteSpace=wrap;html=1;" vertex="1" parent="ozmnLlkfWjM1kBZPzuI--18">
          <mxGeometry width="30" height="30" as="geometry">
            <mxRectangle width="30" height="30" as="alternateBounds" />
          </mxGeometry>
        </mxCell>
        <mxCell id="ozmnLlkfWjM1kBZPzuI--20" value="Prijs" style="shape=partialRectangle;connectable=0;fillColor=none;top=0;left=0;bottom=0;right=0;align=left;spacingLeft=6;overflow=hidden;whiteSpace=wrap;html=1;" vertex="1" parent="ozmnLlkfWjM1kBZPzuI--18">
          <mxGeometry x="30" width="150" height="30" as="geometry">
            <mxRectangle width="150" height="30" as="alternateBounds" />
          </mxGeometry>
        </mxCell>
        <mxCell id="ozmnLlkfWjM1kBZPzuI--21" value="" style="shape=tableRow;horizontal=0;startSize=0;swimlaneHead=0;swimlaneBody=0;fillColor=none;collapsible=0;dropTarget=0;points=[[0,0.5],[1,0.5]];portConstraint=eastwest;top=0;left=0;right=0;bottom=0;" vertex="1" parent="ozmnLlkfWjM1kBZPzuI--14">
          <mxGeometry y="90" width="180" height="30" as="geometry" />
        </mxCell>
        <mxCell id="ozmnLlkfWjM1kBZPzuI--22" value="" style="shape=partialRectangle;connectable=0;fillColor=none;top=0;left=0;bottom=0;right=0;editable=1;overflow=hidden;whiteSpace=wrap;html=1;" vertex="1" parent="ozmnLlkfWjM1kBZPzuI--21">
          <mxGeometry width="30" height="30" as="geometry">
            <mxRectangle width="30" height="30" as="alternateBounds" />
          </mxGeometry>
        </mxCell>
        <mxCell id="ozmnLlkfWjM1kBZPzuI--23" value="ExtraPrijs" style="shape=partialRectangle;connectable=0;fillColor=none;top=0;left=0;bottom=0;right=0;align=left;spacingLeft=6;overflow=hidden;whiteSpace=wrap;html=1;" vertex="1" parent="ozmnLlkfWjM1kBZPzuI--21">
          <mxGeometry x="30" width="150" height="30" as="geometry">
            <mxRectangle width="150" height="30" as="alternateBounds" />
          </mxGeometry>
        </mxCell>
        <mxCell id="vlmOn8En6K4Sp5eqvwq4-1" value="" style="shape=tableRow;horizontal=0;startSize=0;swimlaneHead=0;swimlaneBody=0;fillColor=none;collapsible=0;dropTarget=0;points=[[0,0.5],[1,0.5]];portConstraint=eastwest;top=0;left=0;right=0;bottom=0;" vertex="1" parent="ozmnLlkfWjM1kBZPzuI--14">
          <mxGeometry y="120" width="180" height="30" as="geometry" />
        </mxCell>
        <mxCell id="vlmOn8En6K4Sp5eqvwq4-2" value="" style="shape=partialRectangle;connectable=0;fillColor=none;top=0;left=0;bottom=0;right=0;editable=1;overflow=hidden;whiteSpace=wrap;html=1;" vertex="1" parent="vlmOn8En6K4Sp5eqvwq4-1">
          <mxGeometry width="30" height="30" as="geometry">
            <mxRectangle width="30" height="30" as="alternateBounds" />
          </mxGeometry>
        </mxCell>
        <mxCell id="vlmOn8En6K4Sp5eqvwq4-3" value="Vaarroute" style="shape=partialRectangle;connectable=0;fillColor=none;top=0;left=0;bottom=0;right=0;align=left;spacingLeft=6;overflow=hidden;whiteSpace=wrap;html=1;" vertex="1" parent="vlmOn8En6K4Sp5eqvwq4-1">
          <mxGeometry x="30" width="150" height="30" as="geometry">
            <mxRectangle width="150" height="30" as="alternateBounds" />
          </mxGeometry>
        </mxCell>
        <mxCell id="MpVtieqQfsbZlV-0v82G-14" value="Bezienswaardigheid" style="shape=table;startSize=30;container=1;collapsible=1;childLayout=tableLayout;fixedRows=1;rowLines=0;fontStyle=1;align=center;resizeLast=1;html=1;" vertex="1" parent="1">
          <mxGeometry x="890" y="620" width="213" height="90" as="geometry" />
        </mxCell>
        <mxCell id="MpVtieqQfsbZlV-0v82G-15" value="" style="shape=tableRow;horizontal=0;startSize=0;swimlaneHead=0;swimlaneBody=0;fillColor=none;collapsible=0;dropTarget=0;points=[[0,0.5],[1,0.5]];portConstraint=eastwest;top=0;left=0;right=0;bottom=1;" vertex="1" parent="MpVtieqQfsbZlV-0v82G-14">
          <mxGeometry y="30" width="213" height="30" as="geometry" />
        </mxCell>
        <mxCell id="MpVtieqQfsbZlV-0v82G-16" value="PK, FK1" style="shape=partialRectangle;connectable=0;fillColor=none;top=0;left=0;bottom=0;right=0;fontStyle=1;overflow=hidden;whiteSpace=wrap;html=1;" vertex="1" parent="MpVtieqQfsbZlV-0v82G-15">
          <mxGeometry width="63" height="30" as="geometry">
            <mxRectangle width="63" height="30" as="alternateBounds" />
          </mxGeometry>
        </mxCell>
        <mxCell id="MpVtieqQfsbZlV-0v82G-17" value="Haven_HavenID" style="shape=partialRectangle;connectable=0;fillColor=none;top=0;left=0;bottom=0;right=0;align=left;spacingLeft=6;fontStyle=5;overflow=hidden;whiteSpace=wrap;html=1;" vertex="1" parent="MpVtieqQfsbZlV-0v82G-15">
          <mxGeometry x="63" width="150" height="30" as="geometry">
            <mxRectangle width="150" height="30" as="alternateBounds" />
          </mxGeometry>
        </mxCell>
        <mxCell id="MpVtieqQfsbZlV-0v82G-21" value="" style="shape=tableRow;horizontal=0;startSize=0;swimlaneHead=0;swimlaneBody=0;fillColor=none;collapsible=0;dropTarget=0;points=[[0,0.5],[1,0.5]];portConstraint=eastwest;top=0;left=0;right=0;bottom=0;" vertex="1" parent="MpVtieqQfsbZlV-0v82G-14">
          <mxGeometry y="60" width="213" height="30" as="geometry" />
        </mxCell>
        <mxCell id="MpVtieqQfsbZlV-0v82G-22" value="&lt;b&gt;PK&lt;/b&gt;" style="shape=partialRectangle;connectable=0;fillColor=none;top=0;left=0;bottom=0;right=0;editable=1;overflow=hidden;whiteSpace=wrap;html=1;" vertex="1" parent="MpVtieqQfsbZlV-0v82G-21">
          <mxGeometry width="63" height="30" as="geometry">
            <mxRectangle width="63" height="30" as="alternateBounds" />
          </mxGeometry>
        </mxCell>
        <mxCell id="MpVtieqQfsbZlV-0v82G-23" value="&lt;b&gt;Bezienswaardigheid&lt;/b&gt;" style="shape=partialRectangle;connectable=0;fillColor=none;top=0;left=0;bottom=0;right=0;align=left;spacingLeft=6;overflow=hidden;whiteSpace=wrap;html=1;" vertex="1" parent="MpVtieqQfsbZlV-0v82G-21">
          <mxGeometry x="63" width="150" height="30" as="geometry">
            <mxRectangle width="150" height="30" as="alternateBounds" />
          </mxGeometry>
        </mxCell>
        <mxCell id="iKWs1lggiqibkPBpPzsN-1" value="Gast" style="shape=table;startSize=30;container=1;collapsible=1;childLayout=tableLayout;fixedRows=1;rowLines=0;fontStyle=1;align=center;resizeLast=1;html=1;" vertex="1" parent="1">
          <mxGeometry x="640" y="370" width="180" height="60" as="geometry" />
        </mxCell>
        <mxCell id="iKWs1lggiqibkPBpPzsN-2" value="" style="shape=tableRow;horizontal=0;startSize=0;swimlaneHead=0;swimlaneBody=0;fillColor=none;collapsible=0;dropTarget=0;points=[[0,0.5],[1,0.5]];portConstraint=eastwest;top=0;left=0;right=0;bottom=1;" vertex="1" parent="iKWs1lggiqibkPBpPzsN-1">
          <mxGeometry y="30" width="180" height="30" as="geometry" />
        </mxCell>
        <mxCell id="iKWs1lggiqibkPBpPzsN-3" value="PK, FK1" style="shape=partialRectangle;connectable=0;fillColor=none;top=0;left=0;bottom=0;right=0;fontStyle=1;overflow=hidden;whiteSpace=wrap;html=1;" vertex="1" parent="iKWs1lggiqibkPBpPzsN-2">
          <mxGeometry width="30" height="30" as="geometry">
            <mxRectangle width="30" height="30" as="alternateBounds" />
          </mxGeometry>
        </mxCell>
        <mxCell id="iKWs1lggiqibkPBpPzsN-4" value="Passagiernummer" style="shape=partialRectangle;connectable=0;fillColor=none;top=0;left=0;bottom=0;right=0;align=left;spacingLeft=6;fontStyle=5;overflow=hidden;whiteSpace=wrap;html=1;" vertex="1" parent="iKWs1lggiqibkPBpPzsN-2">
          <mxGeometry x="30" width="150" height="30" as="geometry">
            <mxRectangle width="150" height="30" as="alternateBounds" />
          </mxGeometry>
        </mxCell>
        <mxCell id="iKWs1lggiqibkPBpPzsN-14" value="Hoofdboeker" style="shape=table;startSize=30;container=1;collapsible=1;childLayout=tableLayout;fixedRows=1;rowLines=0;fontStyle=1;align=center;resizeLast=1;html=1;" vertex="1" parent="1">
          <mxGeometry x="640" y="250" width="180" height="90" as="geometry">
            <mxRectangle x="400" y="270" width="110" height="30" as="alternateBounds" />
          </mxGeometry>
        </mxCell>
        <mxCell id="iKWs1lggiqibkPBpPzsN-15" value="" style="shape=tableRow;horizontal=0;startSize=0;swimlaneHead=0;swimlaneBody=0;fillColor=none;collapsible=0;dropTarget=0;points=[[0,0.5],[1,0.5]];portConstraint=eastwest;top=0;left=0;right=0;bottom=1;" vertex="1" parent="iKWs1lggiqibkPBpPzsN-14">
          <mxGeometry y="30" width="180" height="30" as="geometry" />
        </mxCell>
        <mxCell id="iKWs1lggiqibkPBpPzsN-16" value="PK, FK1" style="shape=partialRectangle;connectable=0;fillColor=none;top=0;left=0;bottom=0;right=0;fontStyle=1;overflow=hidden;whiteSpace=wrap;html=1;" vertex="1" parent="iKWs1lggiqibkPBpPzsN-15">
          <mxGeometry width="30" height="30" as="geometry">
            <mxRectangle width="30" height="30" as="alternateBounds" />
          </mxGeometry>
        </mxCell>
        <mxCell id="iKWs1lggiqibkPBpPzsN-17" value="Passsagiernummer" style="shape=partialRectangle;connectable=0;fillColor=none;top=0;left=0;bottom=0;right=0;align=left;spacingLeft=6;fontStyle=5;overflow=hidden;whiteSpace=wrap;html=1;" vertex="1" parent="iKWs1lggiqibkPBpPzsN-15">
          <mxGeometry x="30" width="150" height="30" as="geometry">
            <mxRectangle width="150" height="30" as="alternateBounds" />
          </mxGeometry>
        </mxCell>
        <mxCell id="iKWs1lggiqibkPBpPzsN-24" value="" style="shape=tableRow;horizontal=0;startSize=0;swimlaneHead=0;swimlaneBody=0;fillColor=none;collapsible=0;dropTarget=0;points=[[0,0.5],[1,0.5]];portConstraint=eastwest;top=0;left=0;right=0;bottom=0;" vertex="1" parent="iKWs1lggiqibkPBpPzsN-14">
          <mxGeometry y="60" width="180" height="30" as="geometry" />
        </mxCell>
        <mxCell id="iKWs1lggiqibkPBpPzsN-25" value="" style="shape=partialRectangle;connectable=0;fillColor=none;top=0;left=0;bottom=0;right=0;editable=1;overflow=hidden;whiteSpace=wrap;html=1;" vertex="1" parent="iKWs1lggiqibkPBpPzsN-24">
          <mxGeometry width="30" height="30" as="geometry">
            <mxRectangle width="30" height="30" as="alternateBounds" />
          </mxGeometry>
        </mxCell>
        <mxCell id="iKWs1lggiqibkPBpPzsN-26" value="Boeknummer" style="shape=partialRectangle;connectable=0;fillColor=none;top=0;left=0;bottom=0;right=0;align=left;spacingLeft=6;overflow=hidden;whiteSpace=wrap;html=1;" vertex="1" parent="iKWs1lggiqibkPBpPzsN-24">
          <mxGeometry x="30" width="150" height="30" as="geometry">
            <mxRectangle width="150" height="30" as="alternateBounds" />
          </mxGeometry>
        </mxCell>
        <mxCell id="8MjemuoJ08kiZAq51Zq1-3" value="" style="edgeStyle=entityRelationEdgeStyle;fontSize=12;html=1;endArrow=ERzeroToOne;startArrow=ERmandOne;rounded=0;exitX=1;exitY=0.5;exitDx=0;exitDy=0;entryX=0;entryY=0.5;entryDx=0;entryDy=0;" edge="1" parent="1" source="puPzJixs3Y_ezsmxFopt-2" target="iKWs1lggiqibkPBpPzsN-2">
          <mxGeometry width="100" height="100" relative="1" as="geometry">
            <mxPoint x="620" y="480" as="sourcePoint" />
            <mxPoint x="720" y="380" as="targetPoint" />
          </mxGeometry>
        </mxCell>
        <mxCell id="8MjemuoJ08kiZAq51Zq1-4" value="" style="edgeStyle=entityRelationEdgeStyle;fontSize=12;html=1;endArrow=ERzeroToOne;startArrow=ERmandOne;rounded=0;exitX=1;exitY=0.5;exitDx=0;exitDy=0;entryX=0;entryY=0.5;entryDx=0;entryDy=0;" edge="1" parent="1" source="puPzJixs3Y_ezsmxFopt-2" target="iKWs1lggiqibkPBpPzsN-15">
          <mxGeometry width="100" height="100" relative="1" as="geometry">
            <mxPoint x="620" y="480" as="sourcePoint" />
            <mxPoint x="720" y="380" as="targetPoint" />
          </mxGeometry>
        </mxCell>
        <mxCell id="g2vN_HDewwoKmCpphHiF-1" value="" style="edgeStyle=entityRelationEdgeStyle;fontSize=12;html=1;endArrow=ERzeroToMany;startArrow=ERmandOne;rounded=0;exitX=1;exitY=0.5;exitDx=0;exitDy=0;entryX=1;entryY=0.5;entryDx=0;entryDy=0;" edge="1" parent="1" source="iKWs1lggiqibkPBpPzsN-15" target="iKWs1lggiqibkPBpPzsN-2">
          <mxGeometry width="100" height="100" relative="1" as="geometry">
            <mxPoint x="620" y="480" as="sourcePoint" />
            <mxPoint x="720" y="380" as="targetPoint" />
          </mxGeometry>
        </mxCell>
        <mxCell id="GI7M7aTp9Yqe0cJXBrOa-1" value="" style="edgeStyle=entityRelationEdgeStyle;fontSize=12;html=1;endArrow=ERzeroToMany;startArrow=ERmandOne;rounded=0;entryX=0;entryY=0.5;entryDx=0;entryDy=0;exitX=1;exitY=0.5;exitDx=0;exitDy=0;" edge="1" parent="1" source="xrF1tiFnhXxIQekbWCMH-2" target="pCuK5iy9w1Gr5tuQB178-20">
          <mxGeometry width="100" height="100" relative="1" as="geometry">
            <mxPoint x="420" y="540" as="sourcePoint" />
            <mxPoint x="520" y="440" as="targetPoint" />
          </mxGeometry>
        </mxCell>
        <mxCell id="UiZaPHUYxsKfXV-yN4iH-1" value="Schip maakt Cruise" style="shape=table;startSize=30;container=1;collapsible=1;childLayout=tableLayout;fixedRows=1;rowLines=0;fontStyle=1;align=center;resizeLast=1;html=1;whiteSpace=wrap;" vertex="1" parent="1">
          <mxGeometry x="-200" y="390" width="180" height="150" as="geometry" />
        </mxCell>
        <mxCell id="UiZaPHUYxsKfXV-yN4iH-2" value="" style="shape=tableRow;horizontal=0;startSize=0;swimlaneHead=0;swimlaneBody=0;fillColor=none;collapsible=0;dropTarget=0;points=[[0,0.5],[1,0.5]];portConstraint=eastwest;top=0;left=0;right=0;bottom=0;html=1;" vertex="1" parent="UiZaPHUYxsKfXV-yN4iH-1">
          <mxGeometry y="30" width="180" height="30" as="geometry" />
        </mxCell>
        <mxCell id="UiZaPHUYxsKfXV-yN4iH-3" value="PK,FK1" style="shape=partialRectangle;connectable=0;fillColor=none;top=0;left=0;bottom=0;right=0;fontStyle=1;overflow=hidden;html=1;whiteSpace=wrap;" vertex="1" parent="UiZaPHUYxsKfXV-yN4iH-2">
          <mxGeometry width="60" height="30" as="geometry">
            <mxRectangle width="60" height="30" as="alternateBounds" />
          </mxGeometry>
        </mxCell>
        <mxCell id="UiZaPHUYxsKfXV-yN4iH-4" value="Schip_IMO-nummer" style="shape=partialRectangle;connectable=0;fillColor=none;top=0;left=0;bottom=0;right=0;align=left;spacingLeft=6;fontStyle=5;overflow=hidden;html=1;whiteSpace=wrap;" vertex="1" parent="UiZaPHUYxsKfXV-yN4iH-2">
          <mxGeometry x="60" width="120" height="30" as="geometry">
            <mxRectangle width="120" height="30" as="alternateBounds" />
          </mxGeometry>
        </mxCell>
        <mxCell id="UiZaPHUYxsKfXV-yN4iH-5" value="" style="shape=tableRow;horizontal=0;startSize=0;swimlaneHead=0;swimlaneBody=0;fillColor=none;collapsible=0;dropTarget=0;points=[[0,0.5],[1,0.5]];portConstraint=eastwest;top=0;left=0;right=0;bottom=1;html=1;" vertex="1" parent="UiZaPHUYxsKfXV-yN4iH-1">
          <mxGeometry y="60" width="180" height="30" as="geometry" />
        </mxCell>
        <mxCell id="UiZaPHUYxsKfXV-yN4iH-6" value="PK,FK2" style="shape=partialRectangle;connectable=0;fillColor=none;top=0;left=0;bottom=0;right=0;fontStyle=1;overflow=hidden;html=1;whiteSpace=wrap;" vertex="1" parent="UiZaPHUYxsKfXV-yN4iH-5">
          <mxGeometry width="60" height="30" as="geometry">
            <mxRectangle width="60" height="30" as="alternateBounds" />
          </mxGeometry>
        </mxCell>
        <mxCell id="UiZaPHUYxsKfXV-yN4iH-7" value="Cruise_Naam" style="shape=partialRectangle;connectable=0;fillColor=none;top=0;left=0;bottom=0;right=0;align=left;spacingLeft=6;fontStyle=5;overflow=hidden;html=1;whiteSpace=wrap;" vertex="1" parent="UiZaPHUYxsKfXV-yN4iH-5">
          <mxGeometry x="60" width="120" height="30" as="geometry">
            <mxRectangle width="120" height="30" as="alternateBounds" />
          </mxGeometry>
        </mxCell>
        <mxCell id="mtR3xkWMPqBBOuxaZZT8-1" value="" style="shape=tableRow;horizontal=0;startSize=0;swimlaneHead=0;swimlaneBody=0;fillColor=none;collapsible=0;dropTarget=0;points=[[0,0.5],[1,0.5]];portConstraint=eastwest;top=0;left=0;right=0;bottom=1;html=1;" vertex="1" parent="UiZaPHUYxsKfXV-yN4iH-1">
          <mxGeometry y="90" width="180" height="30" as="geometry" />
        </mxCell>
        <mxCell id="mtR3xkWMPqBBOuxaZZT8-2" value="PK" style="shape=partialRectangle;connectable=0;fillColor=none;top=0;left=0;bottom=0;right=0;fontStyle=1;overflow=hidden;html=1;whiteSpace=wrap;" vertex="1" parent="mtR3xkWMPqBBOuxaZZT8-1">
          <mxGeometry width="60" height="30" as="geometry">
            <mxRectangle width="60" height="30" as="alternateBounds" />
          </mxGeometry>
        </mxCell>
        <mxCell id="mtR3xkWMPqBBOuxaZZT8-3" value="Van" style="shape=partialRectangle;connectable=0;fillColor=none;top=0;left=0;bottom=0;right=0;align=left;spacingLeft=6;fontStyle=5;overflow=hidden;html=1;whiteSpace=wrap;" vertex="1" parent="mtR3xkWMPqBBOuxaZZT8-1">
          <mxGeometry x="60" width="120" height="30" as="geometry">
            <mxRectangle width="120" height="30" as="alternateBounds" />
          </mxGeometry>
        </mxCell>
        <mxCell id="UiZaPHUYxsKfXV-yN4iH-11" value="" style="shape=tableRow;horizontal=0;startSize=0;swimlaneHead=0;swimlaneBody=0;fillColor=none;collapsible=0;dropTarget=0;points=[[0,0.5],[1,0.5]];portConstraint=eastwest;top=0;left=0;right=0;bottom=0;html=1;" vertex="1" parent="UiZaPHUYxsKfXV-yN4iH-1">
          <mxGeometry y="120" width="180" height="30" as="geometry" />
        </mxCell>
        <mxCell id="UiZaPHUYxsKfXV-yN4iH-12" value="" style="shape=partialRectangle;connectable=0;fillColor=none;top=0;left=0;bottom=0;right=0;editable=1;overflow=hidden;html=1;whiteSpace=wrap;" vertex="1" parent="UiZaPHUYxsKfXV-yN4iH-11">
          <mxGeometry width="60" height="30" as="geometry">
            <mxRectangle width="60" height="30" as="alternateBounds" />
          </mxGeometry>
        </mxCell>
        <mxCell id="UiZaPHUYxsKfXV-yN4iH-13" value="Tot" style="shape=partialRectangle;connectable=0;fillColor=none;top=0;left=0;bottom=0;right=0;align=left;spacingLeft=6;overflow=hidden;html=1;whiteSpace=wrap;" vertex="1" parent="UiZaPHUYxsKfXV-yN4iH-11">
          <mxGeometry x="60" width="120" height="30" as="geometry">
            <mxRectangle width="120" height="30" as="alternateBounds" />
          </mxGeometry>
        </mxCell>
        <mxCell id="lOKu1lp46Xsc0h3mV3nF-1" value="" style="edgeStyle=entityRelationEdgeStyle;fontSize=12;html=1;endArrow=ERzeroToMany;startArrow=ERmandOne;rounded=0;exitX=0;exitY=0.5;exitDx=0;exitDy=0;entryX=1;entryY=0.5;entryDx=0;entryDy=0;" edge="1" parent="1" source="xrF1tiFnhXxIQekbWCMH-2" target="UiZaPHUYxsKfXV-yN4iH-2">
          <mxGeometry width="100" height="100" relative="1" as="geometry">
            <mxPoint x="420" y="630" as="sourcePoint" />
            <mxPoint x="520" y="530" as="targetPoint" />
            <Array as="points">
              <mxPoint x="50" y="450" />
            </Array>
          </mxGeometry>
        </mxCell>
        <mxCell id="lOKu1lp46Xsc0h3mV3nF-2" value="" style="edgeStyle=entityRelationEdgeStyle;fontSize=12;html=1;endArrow=ERoneToMany;startArrow=ERmandOne;rounded=0;exitX=0;exitY=0.5;exitDx=0;exitDy=0;entryX=1;entryY=0.5;entryDx=0;entryDy=0;" edge="1" parent="1" source="ozmnLlkfWjM1kBZPzuI--15" target="UiZaPHUYxsKfXV-yN4iH-5">
          <mxGeometry width="100" height="100" relative="1" as="geometry">
            <mxPoint x="150" y="540" as="sourcePoint" />
            <mxPoint x="250" y="440" as="targetPoint" />
          </mxGeometry>
        </mxCell>
        <mxCell id="zhbl1OpCo393ixJAak57-1" value="Cruise meert aan Haven" style="shape=table;startSize=30;container=1;collapsible=1;childLayout=tableLayout;fixedRows=1;rowLines=0;fontStyle=1;align=center;resizeLast=1;html=1;whiteSpace=wrap;" vertex="1" parent="1">
          <mxGeometry x="360" y="640" width="180" height="150" as="geometry" />
        </mxCell>
        <mxCell id="zhbl1OpCo393ixJAak57-2" value="" style="shape=tableRow;horizontal=0;startSize=0;swimlaneHead=0;swimlaneBody=0;fillColor=none;collapsible=0;dropTarget=0;points=[[0,0.5],[1,0.5]];portConstraint=eastwest;top=0;left=0;right=0;bottom=0;html=1;" vertex="1" parent="zhbl1OpCo393ixJAak57-1">
          <mxGeometry y="30" width="180" height="30" as="geometry" />
        </mxCell>
        <mxCell id="zhbl1OpCo393ixJAak57-3" value="PK,FK1" style="shape=partialRectangle;connectable=0;fillColor=none;top=0;left=0;bottom=0;right=0;fontStyle=1;overflow=hidden;html=1;whiteSpace=wrap;" vertex="1" parent="zhbl1OpCo393ixJAak57-2">
          <mxGeometry width="60" height="30" as="geometry">
            <mxRectangle width="60" height="30" as="alternateBounds" />
          </mxGeometry>
        </mxCell>
        <mxCell id="zhbl1OpCo393ixJAak57-4" value="Cruise_Naam" style="shape=partialRectangle;connectable=0;fillColor=none;top=0;left=0;bottom=0;right=0;align=left;spacingLeft=6;fontStyle=5;overflow=hidden;html=1;whiteSpace=wrap;" vertex="1" parent="zhbl1OpCo393ixJAak57-2">
          <mxGeometry x="60" width="120" height="30" as="geometry">
            <mxRectangle width="120" height="30" as="alternateBounds" />
          </mxGeometry>
        </mxCell>
        <mxCell id="zhbl1OpCo393ixJAak57-5" value="" style="shape=tableRow;horizontal=0;startSize=0;swimlaneHead=0;swimlaneBody=0;fillColor=none;collapsible=0;dropTarget=0;points=[[0,0.5],[1,0.5]];portConstraint=eastwest;top=0;left=0;right=0;bottom=1;html=1;" vertex="1" parent="zhbl1OpCo393ixJAak57-1">
          <mxGeometry y="60" width="180" height="30" as="geometry" />
        </mxCell>
        <mxCell id="zhbl1OpCo393ixJAak57-6" value="PK,FK2" style="shape=partialRectangle;connectable=0;fillColor=none;top=0;left=0;bottom=0;right=0;fontStyle=1;overflow=hidden;html=1;whiteSpace=wrap;" vertex="1" parent="zhbl1OpCo393ixJAak57-5">
          <mxGeometry width="60" height="30" as="geometry">
            <mxRectangle width="60" height="30" as="alternateBounds" />
          </mxGeometry>
        </mxCell>
        <mxCell id="zhbl1OpCo393ixJAak57-7" value="Haven_HavenID" style="shape=partialRectangle;connectable=0;fillColor=none;top=0;left=0;bottom=0;right=0;align=left;spacingLeft=6;fontStyle=5;overflow=hidden;html=1;whiteSpace=wrap;" vertex="1" parent="zhbl1OpCo393ixJAak57-5">
          <mxGeometry x="60" width="120" height="30" as="geometry">
            <mxRectangle width="120" height="30" as="alternateBounds" />
          </mxGeometry>
        </mxCell>
        <mxCell id="zhbl1OpCo393ixJAak57-14" value="" style="shape=tableRow;horizontal=0;startSize=0;swimlaneHead=0;swimlaneBody=0;fillColor=none;collapsible=0;dropTarget=0;points=[[0,0.5],[1,0.5]];portConstraint=eastwest;top=0;left=0;right=0;bottom=1;html=1;" vertex="1" parent="zhbl1OpCo393ixJAak57-1">
          <mxGeometry y="90" width="180" height="30" as="geometry" />
        </mxCell>
        <mxCell id="zhbl1OpCo393ixJAak57-15" value="PK" style="shape=partialRectangle;connectable=0;fillColor=none;top=0;left=0;bottom=0;right=0;fontStyle=1;overflow=hidden;html=1;whiteSpace=wrap;" vertex="1" parent="zhbl1OpCo393ixJAak57-14">
          <mxGeometry width="60" height="30" as="geometry">
            <mxRectangle width="60" height="30" as="alternateBounds" />
          </mxGeometry>
        </mxCell>
        <mxCell id="zhbl1OpCo393ixJAak57-16" value="Van" style="shape=partialRectangle;connectable=0;fillColor=none;top=0;left=0;bottom=0;right=0;align=left;spacingLeft=6;fontStyle=5;overflow=hidden;html=1;whiteSpace=wrap;" vertex="1" parent="zhbl1OpCo393ixJAak57-14">
          <mxGeometry x="60" width="120" height="30" as="geometry">
            <mxRectangle width="120" height="30" as="alternateBounds" />
          </mxGeometry>
        </mxCell>
        <mxCell id="zhbl1OpCo393ixJAak57-8" value="" style="shape=tableRow;horizontal=0;startSize=0;swimlaneHead=0;swimlaneBody=0;fillColor=none;collapsible=0;dropTarget=0;points=[[0,0.5],[1,0.5]];portConstraint=eastwest;top=0;left=0;right=0;bottom=0;html=1;" vertex="1" parent="zhbl1OpCo393ixJAak57-1">
          <mxGeometry y="120" width="180" height="30" as="geometry" />
        </mxCell>
        <mxCell id="zhbl1OpCo393ixJAak57-9" value="" style="shape=partialRectangle;connectable=0;fillColor=none;top=0;left=0;bottom=0;right=0;editable=1;overflow=hidden;html=1;whiteSpace=wrap;" vertex="1" parent="zhbl1OpCo393ixJAak57-8">
          <mxGeometry width="60" height="30" as="geometry">
            <mxRectangle width="60" height="30" as="alternateBounds" />
          </mxGeometry>
        </mxCell>
        <mxCell id="zhbl1OpCo393ixJAak57-10" value="Tot" style="shape=partialRectangle;connectable=0;fillColor=none;top=0;left=0;bottom=0;right=0;align=left;spacingLeft=6;overflow=hidden;html=1;whiteSpace=wrap;" vertex="1" parent="zhbl1OpCo393ixJAak57-8">
          <mxGeometry x="60" width="120" height="30" as="geometry">
            <mxRectangle width="120" height="30" as="alternateBounds" />
          </mxGeometry>
        </mxCell>
        <mxCell id="74PCSqwq3pRRUDTMkEDN-1" value="" style="edgeStyle=entityRelationEdgeStyle;fontSize=12;html=1;endArrow=ERzeroToMany;startArrow=ERmandOne;rounded=0;entryX=1;entryY=0.5;entryDx=0;entryDy=0;exitX=0;exitY=0.5;exitDx=0;exitDy=0;" edge="1" parent="1" source="xrF1tiFnhXxIQekbWCMH-15" target="zhbl1OpCo393ixJAak57-5">
          <mxGeometry width="100" height="100" relative="1" as="geometry">
            <mxPoint x="520" y="770" as="sourcePoint" />
            <mxPoint x="620" y="670" as="targetPoint" />
          </mxGeometry>
        </mxCell>
        <mxCell id="74PCSqwq3pRRUDTMkEDN-2" value="" style="edgeStyle=entityRelationEdgeStyle;fontSize=12;html=1;endArrow=ERoneToMany;startArrow=ERmandOne;rounded=0;exitX=1;exitY=0.5;exitDx=0;exitDy=0;entryX=0;entryY=0.5;entryDx=0;entryDy=0;" edge="1" parent="1" source="ozmnLlkfWjM1kBZPzuI--15" target="zhbl1OpCo393ixJAak57-2">
          <mxGeometry width="100" height="100" relative="1" as="geometry">
            <mxPoint x="520" y="770" as="sourcePoint" />
            <mxPoint x="620" y="670" as="targetPoint" />
          </mxGeometry>
        </mxCell>
        <mxCell id="NCAiN24Vzjy5qBBEbs6E-1" value="" style="edgeStyle=entityRelationEdgeStyle;fontSize=12;html=1;endArrow=ERoneToMany;startArrow=ERmandOne;rounded=0;exitX=1;exitY=0.5;exitDx=0;exitDy=0;entryX=0;entryY=0.5;entryDx=0;entryDy=0;" edge="1" parent="1" source="xrF1tiFnhXxIQekbWCMH-15" target="MpVtieqQfsbZlV-0v82G-15">
          <mxGeometry width="100" height="100" relative="1" as="geometry">
            <mxPoint x="840" y="740" as="sourcePoint" />
            <mxPoint x="940" y="640" as="targetPoint" />
          </mxGeometry>
        </mxCell>
      </root>
    </mxGraphModel>
  </diagram>
</mxfile>
